<svg width="24" height="24" viewBox="0 0 24 24" fill="none" xmlns="http://www.w3.org/2000/svg">
<path fill-rule="evenodd" clip-rule="evenodd" d="M11.276 12.724H4.72399C4.3258 12.724 4 12.3982 4 12C4 11.6018 4.3258 11.276 4.72399 11.276H11.276V4.72398C11.276 4.32579 11.6018 4 12 4C12.3982 4 12.724 4.32579 12.724 4.72398V11.276H19.276C19.6742 11.276 20 11.6018 20 12C20 12.3982 19.6742 12.724 19.276 12.724H12.724V19.276C12.724 19.6742 12.3982 20 12 20C11.6018 20 11.276 19.6742 11.276 19.276V12.724Z" fill="#6F7476"/>
</svg>
