<svg width="24" height="24" viewBox="0 0 24 24" fill="none" xmlns="http://www.w3.org/2000/svg">
<path d="M9.44343 18.4411C9.50164 18.383 9.5478 18.3141 9.57931 18.2381C9.61082 18.1622 9.62704 18.0808 9.62704 17.9986C9.62704 17.9164 9.61082 17.835 9.57931 17.759C9.5478 17.6831 9.50164 17.6141 9.44343 17.5561L4.50967 12.6236L21.0009 12.6236C21.1667 12.6236 21.3257 12.5577 21.4429 12.4405C21.5601 12.3233 21.6259 12.1643 21.6259 11.9986C21.6259 11.8328 21.5601 11.6739 21.4429 11.5566C21.3257 11.4394 21.1667 11.3736 21.0009 11.3736L4.50967 11.3736L9.44343 6.44109C9.56079 6.32373 9.62672 6.16456 9.62672 5.99859C9.62672 5.83262 9.56079 5.67345 9.44343 5.55609C9.32607 5.43873 9.1669 5.3728 9.00093 5.3728C8.83496 5.3728 8.67578 5.43873 8.55842 5.55609L2.55842 11.5561C2.5292 11.5856 2.50283 11.6178 2.47967 11.6523C2.46967 11.6673 2.46343 11.6823 2.45468 11.6986C2.44262 11.7183 2.43176 11.7388 2.42218 11.7598C2.41468 11.7798 2.40967 11.8011 2.40342 11.8223C2.3967 11.8398 2.39126 11.8578 2.38717 11.8761C2.3698 11.9585 2.3698 12.0437 2.38717 12.1261C2.39126 12.1444 2.3967 12.1623 2.40342 12.1798C2.40342 12.2011 2.41468 12.2223 2.42218 12.2423C2.43176 12.2634 2.44262 12.2838 2.45468 12.3036C2.46343 12.3198 2.46967 12.3348 2.47967 12.3498C2.50283 12.3843 2.5292 12.4166 2.55842 12.4461L8.55842 18.4461C8.61681 18.504 8.68605 18.5498 8.76216 18.5808C8.83827 18.6119 8.91975 18.6277 9.00196 18.6272C9.08417 18.6267 9.16548 18.6101 9.24124 18.5781C9.31699 18.5462 9.3857 18.4996 9.44343 18.4411Z" fill="#6F7476"/>
</svg>
