<svg width="24" height="24" viewBox="0 0 24 24" fill="none" xmlns="http://www.w3.org/2000/svg">
<path d="M7.4705 20.2204C7.86041 20.2106 8.19023 20.5207 8.19023 20.9206C8.19003 21.3205 7.87991 21.6401 7.49004 21.6501C7.10014 21.66 6.78031 21.3399 6.77031 20.9499C6.76048 20.5501 7.0806 20.2304 7.4705 20.2204Z" fill="#6F7476"/>
<path d="M11.99 20.2204C12.38 20.2104 12.7107 20.5206 12.7107 20.9206C12.7105 21.3204 12.4003 21.64 12.0105 21.6501C11.6205 21.6601 11.2998 21.3399 11.2898 20.9499C11.29 20.5502 11.6002 20.2306 11.99 20.2204Z" fill="#6F7476"/>
<path d="M16.5203 20.2204C16.9103 20.2105 17.24 20.5207 17.24 20.9206C17.2398 21.3205 16.9297 21.6401 16.5398 21.6501C16.15 21.6599 15.8301 21.3398 15.8201 20.9499C15.8203 20.5501 16.1304 20.2304 16.5203 20.2204Z" fill="#6F7476"/>
<path fill-rule="evenodd" clip-rule="evenodd" d="M12.0047 5.99975C13.8686 5.99975 15.3796 7.51089 15.3797 9.37475C15.3797 10.3888 14.9314 11.2971 14.2234 11.9158C16.5087 12.8051 18.1296 15.0261 18.1297 17.6247C18.1297 17.9268 17.9155 18.1788 17.6307 18.2371L17.5047 18.2497H6.50468C6.15966 18.2496 5.87968 17.9698 5.87968 17.6247C5.87978 15.0263 7.501 12.8052 9.78593 11.9158C9.07817 11.2971 8.62968 10.3886 8.62968 9.37475C8.62981 7.51101 10.141 5.99993 12.0047 5.99975ZM12.0047 12.7497C9.52592 12.7499 7.479 14.604 7.17168 16.9997H16.8377C16.5303 14.604 14.4836 12.7497 12.0047 12.7497ZM12.0047 7.24975C10.8313 7.24993 9.87981 8.20136 9.87968 9.37475C9.87968 10.5482 10.8312 11.4996 12.0047 11.4997C13.1783 11.4997 14.1297 10.5483 14.1297 9.37475C14.1296 8.20125 13.1782 7.24975 12.0047 7.24975Z" fill="#6F7476"/>
<path d="M21.0506 15.6706C21.4403 15.6608 21.7701 15.9701 21.7703 16.3699C21.7703 16.7699 21.4601 17.0903 21.0701 17.1003C20.6802 17.1103 20.3604 16.7901 20.3504 16.4001C20.3504 16.0002 20.6606 15.6806 21.0506 15.6706Z" fill="#6F7476"/>
<path d="M2.94023 15.6706C3.33019 15.6606 3.6599 15.9602 3.65996 16.3601C3.65996 16.7601 3.34976 17.0806 2.95976 17.0906C2.57004 17.1003 2.25011 16.7801 2.24004 16.3904C2.23004 16.0004 2.55024 15.6707 2.94023 15.6706Z" fill="#6F7476"/>
<path d="M2.94023 11.1101C3.33023 11.1001 3.65996 11.4103 3.65996 11.8103C3.65991 12.2102 3.34973 12.5298 2.95976 12.5398C2.57009 12.5495 2.25021 12.2402 2.24004 11.8406C2.23004 11.4406 2.55024 11.1201 2.94023 11.1101Z" fill="#6F7476"/>
<path d="M7.46074 11.1101C7.86053 11.1003 8.19023 11.4104 8.19023 11.8103C8.19018 12.2102 7.88001 12.5298 7.49004 12.5398C7.10025 12.5497 6.76075 12.2403 6.76054 11.8406C6.76054 11.4406 7.06074 11.1201 7.46074 11.1101Z" fill="#6F7476"/>
<path d="M16.5203 11.1101C16.9103 11.1001 17.24 11.4103 17.24 11.8103C17.24 12.2102 16.9298 12.5298 16.5398 12.5398C16.1501 12.5495 15.8203 12.2402 15.8201 11.8406C15.8201 11.4406 16.1303 11.1201 16.5203 11.1101Z" fill="#6F7476"/>
<path d="M21.0506 11.1101C21.4404 11.1003 21.7703 11.4104 21.7703 11.8103C21.7703 12.2102 21.4601 12.5298 21.0701 12.5398C20.6803 12.5497 20.3606 12.2304 20.3504 11.8406C20.3504 11.4406 20.6606 11.1201 21.0506 11.1101Z" fill="#6F7476"/>
<path d="M21.0506 6.56029C21.4404 6.55048 21.7703 6.8606 21.7703 7.26049C21.7702 7.66036 21.46 7.97998 21.0701 7.98998C20.6802 7.99991 20.3604 7.67974 20.3504 7.28978C20.3506 6.88998 20.6607 6.57029 21.0506 6.56029Z" fill="#6F7476"/>
<path d="M2.94023 6.56029C3.33008 6.5503 3.6597 6.84998 3.65996 7.24975C3.65996 7.64975 3.34976 7.97021 2.95976 7.98021C2.56998 7.98994 2.25003 7.66986 2.24004 7.28002C2.23015 6.89011 2.55031 6.5603 2.94023 6.56029Z" fill="#6F7476"/>
<path d="M7.4705 6.55053C7.86027 6.54064 8.18998 6.85004 8.19023 7.24975C8.19023 7.64975 7.88003 7.97021 7.49004 7.98021C7.10015 7.99007 6.77031 7.67993 6.77031 7.28002C6.7704 6.88011 7.08056 6.56052 7.4705 6.55053Z" fill="#6F7476"/>
<path d="M16.5203 6.55053C16.9102 6.54054 17.2398 6.84997 17.24 7.24975C17.24 7.64975 16.9298 7.97021 16.5398 7.98021C16.15 7.98997 15.8201 7.67987 15.8201 7.28002C15.8202 6.88011 16.1304 6.56052 16.5203 6.55053Z" fill="#6F7476"/>
<path d="M7.46074 1.99975C7.86044 1.99 8.19008 2.30023 8.19023 2.69994C8.19023 3.09994 7.88003 3.42041 7.49004 3.43041C7.10014 3.44027 6.76054 3.13013 6.76054 2.73021C6.76054 2.33022 7.07074 2.00975 7.46074 1.99975Z" fill="#6F7476"/>
<path d="M11.99 1.99975C12.3799 1.98975 12.7106 2.31006 12.7107 2.69994C12.7207 3.09985 12.4104 3.42026 12.0105 3.43041C11.6205 3.44041 11.2998 3.12021 11.2898 2.73021C11.2898 2.33028 11.6001 2.00985 11.99 1.99975Z" fill="#6F7476"/>
<path d="M16.5203 1.99975C16.9102 1.98977 17.2299 2.30009 17.24 2.69994C17.25 3.09994 16.9398 3.42041 16.5398 3.43041C16.15 3.44016 15.8201 3.13006 15.8201 2.73021C15.8201 2.33022 16.1303 2.00975 16.5203 1.99975Z" fill="#6F7476"/>
</svg>
