<svg width="24" height="24" viewBox="0 0 24 24" fill="none" xmlns="http://www.w3.org/2000/svg">
<path d="M17.165 2.72495L12 6.74995L6.83505 2.72495C6.17005 2.30245 5.30005 2.77995 5.30005 3.56995V17C5.30005 17.4725 5.52255 17.92 5.90255 18.2025L11.105 22.0825C11.6375 22.48 12.3675 22.48 12.9 22.0825L18.1025 18.2025C18.4825 17.92 18.705 17.4725 18.705 17V3.56745C18.705 2.77995 17.835 2.29995 17.17 2.72245L17.165 2.72495ZM7.40005 17.4475C7.02005 17.165 6.79755 16.7175 6.79755 16.245V5.62245C6.79755 5.20495 7.27755 4.97245 7.60505 5.22745L11.615 8.35245C11.8575 8.54245 12 8.83245 12 9.13995V20.8775L7.40255 17.4475H7.40005Z" fill="#2DC87D"/>
</svg>
