<svg width="24" height="24" viewBox="0 0 24 24" fill="none" xmlns="http://www.w3.org/2000/svg">
<path d="M19.0955 19.0378C20.8895 17.2297 22 14.7416 22 11.9994C22 6.48562 17.5144 2 12.0006 2C9.25957 2 6.77266 3.10935 4.96453 4.90218C4.95394 4.91159 4.941 4.91865 4.93159 4.92924C4.921 4.93983 4.91395 4.95159 4.90454 4.96218C3.11052 6.77148 2 9.2584 2 11.9994C2 17.5132 6.48562 21.9988 11.9994 21.9988C14.7416 21.9988 17.2285 20.8883 19.0366 19.0955C19.0472 19.0861 19.059 19.079 19.0684 19.0696C19.079 19.059 19.0861 19.0484 19.0955 19.0378ZM20.8224 11.9994C20.8224 14.2205 19.9954 16.2509 18.6355 17.8038L6.19505 5.36333C7.7479 4.00341 9.77837 3.1764 11.9994 3.1764C16.865 3.1764 20.8224 7.13499 20.8224 11.9994ZM3.1764 11.9994C3.1764 9.77837 4.00341 7.7479 5.36333 6.19505L17.8038 18.6355C16.2509 19.9954 14.2205 20.8224 11.9994 20.8224C7.13499 20.8224 3.1764 16.865 3.1764 11.9994Z" fill="#6F7476"/>
</svg>
