<svg width="24" height="24" viewBox="0 0 24 24" fill="none" xmlns="http://www.w3.org/2000/svg">
<path d="M17.6242 12.209C14.6426 12.209 12.2264 14.6252 12.2264 17.6068C12.2264 20.5883 14.6426 23.0046 17.6242 23.0046C20.6057 23.0046 23.022 20.5883 23.022 17.6068C23.022 14.6252 20.6057 12.209 17.6242 12.209ZM18.0669 20.3432C17.9494 20.4608 17.7893 20.5283 17.6242 20.5283C17.4591 20.5283 17.299 20.4608 17.1815 20.3432C17.0664 20.2282 16.9989 20.0681 16.9989 19.903C16.9989 19.7379 17.0664 19.5753 17.1815 19.4603C17.4141 19.2276 17.8343 19.2276 18.0669 19.4603C18.182 19.5753 18.2495 19.7379 18.2495 19.903C18.2495 20.0681 18.182 20.2282 18.0669 20.3432ZM18.2495 17.8119C18.2495 18.1571 17.9694 18.4372 17.6242 18.4372C17.279 18.4372 16.9989 18.1571 16.9989 17.8119V15.3131C16.9989 14.9679 17.279 14.6878 17.6242 14.6878C17.9694 14.6878 18.2495 14.9679 18.2495 15.3131V17.8119Z" fill="#D92B57" class="accent"/>
<path fill-rule="evenodd" clip-rule="evenodd" d="M10.4129 20.1505H4.12964C3.90953 20.1505 3.72943 19.9704 3.72943 19.7503V12.3515H12.0788C12.5115 11.8937 13.0018 11.491 13.5345 11.1509H3.72693V6.75106C3.72693 6.53095 3.90703 6.35085 4.12714 6.35085H6.52589V6.75106C6.52589 7.91167 7.46638 8.85216 8.62698 8.85216C9.78759 8.85216 10.7281 7.91167 10.7281 6.75106V6.35085H13.527V6.75106C13.527 7.91167 14.4675 8.85216 15.6281 8.85216C16.7887 8.85216 17.7292 7.91167 17.7292 6.75106V6.35085H20.128C20.3481 6.35085 20.5282 6.53095 20.5282 6.75106V10.533C20.9484 10.7056 21.3486 10.9157 21.7288 11.1584V6.75106C21.7288 5.8706 21.0084 5.15023 20.128 5.15023H17.7292V4.75002C17.7292 3.58942 16.7887 2.64893 15.6281 2.64893C14.4675 2.64893 13.527 3.58942 13.527 4.75002V5.15023H10.7281V4.75002C10.7281 3.58942 9.78759 2.64893 8.62698 2.64893C7.46638 2.64893 6.52589 3.58942 6.52589 4.75002V5.15023H4.12714C3.24668 5.15023 2.52631 5.8706 2.52631 6.75106V19.7503C2.52631 20.6308 3.24668 21.3512 4.12714 21.3512H10.9557C10.7406 20.971 10.558 20.5683 10.4104 20.1505H10.4129ZM14.7277 5.75054V4.75002C14.7277 4.24976 15.1279 3.84955 15.6281 3.84955C16.1284 3.84955 16.5286 4.24976 16.5286 4.75002V6.75106C16.5286 7.25132 16.1284 7.65153 15.6281 7.65153C15.1279 7.65153 14.7277 7.25132 14.7277 6.75106V5.75054ZM7.72902 5.75054V4.75002C7.72902 4.24976 8.12922 3.84955 8.62949 3.84955C9.12975 3.84955 9.52995 4.24976 9.52995 4.75002V6.75106C9.52995 7.25132 9.12975 7.65153 8.62949 7.65153C8.12922 7.65153 7.72902 7.25132 7.72902 6.75106V5.75054Z" fill="#6F7476"/>
</svg>
