<svg width="24" height="24" viewBox="0 0 24 24" fill="none" xmlns="http://www.w3.org/2000/svg">
<path fill-rule="evenodd" clip-rule="evenodd" d="M19.7745 4.21819C19.384 3.82766 18.7508 3.82766 18.3603 4.21819L11.9963 10.5821L5.6324 4.21819C5.24187 3.82766 4.60871 3.82766 4.21818 4.21819C3.82766 4.60871 3.82766 5.24188 4.21818 5.6324L10.5821 11.9964L4.21818 18.3603C3.82766 18.7508 3.82766 19.384 4.21818 19.7745C4.60871 20.1651 5.24187 20.165 5.6324 19.7745L11.9963 13.4106L18.3603 19.7745C18.7508 20.165 19.384 20.1651 19.7745 19.7745C20.165 19.384 20.165 18.7508 19.7745 18.3603L13.4106 11.9964L19.7745 5.6324C20.165 5.24188 20.165 4.60871 19.7745 4.21819Z" fill="#6F7476"/>
</svg>
