<svg width="24" height="25" viewBox="0 0 24 25" fill="none" xmlns="http://www.w3.org/2000/svg">
<path fill-rule="evenodd" clip-rule="evenodd" d="M2.97249 2.03564C3.05107 2.03542 3.12886 2.05128 3.20109 2.08223C3.27331 2.11318 3.33846 2.15858 3.39249 2.21564L8.26749 7.09064V4.28564C8.26749 4.12651 8.3307 3.9739 8.44322 3.86138C8.55575 3.74885 8.70835 3.68564 8.86748 3.68564C9.02661 3.68564 9.17923 3.74885 9.29175 3.86138C9.40427 3.9739 9.46749 4.12651 9.46749 4.28564V8.53564C9.46724 8.67721 9.41674 8.81409 9.32498 8.92189L9.28749 8.96564C9.22368 9.0317 9.14502 9.08158 9.05806 9.11114C8.9711 9.14071 8.87835 9.14911 8.78749 9.13564H4.63124C4.55245 9.13564 4.47443 9.12012 4.40163 9.08997C4.32884 9.05981 4.26269 9.01562 4.20697 8.9599C4.15126 8.90419 4.10706 8.83805 4.07691 8.76525C4.04676 8.69245 4.03124 8.61443 4.03124 8.53564C4.03124 8.45685 4.04676 8.37882 4.07691 8.30603C4.10706 8.23323 4.15126 8.16709 4.20697 8.11138C4.26269 8.05566 4.32884 8.01146 4.40163 7.98131C4.47443 7.95116 4.55245 7.93564 4.63124 7.93564H7.41124L2.53624 3.06064C2.45246 2.97575 2.39562 2.86799 2.3729 2.75091C2.35018 2.63382 2.36256 2.51263 2.40851 2.40256C2.45446 2.2925 2.53192 2.19847 2.63115 2.13229C2.73039 2.06612 2.84697 2.03075 2.96624 2.03064L2.97249 2.03564Z" fill="#6F7476"/>
<path fill-rule="evenodd" clip-rule="evenodd" d="M20.1238 14.9307C20.2829 14.9307 20.4355 14.9939 20.5481 15.1064C20.6606 15.2189 20.7238 15.3715 20.7238 15.5307C20.7238 15.6898 20.6606 15.8424 20.5481 15.9549C20.4355 16.0674 20.2829 16.1307 20.1238 16.1307H17.3238L22.1988 21.0057C22.3094 21.1195 22.3712 21.272 22.3712 21.4307C22.3712 21.5894 22.3094 21.7418 22.1988 21.8557C22.143 21.9116 22.0768 21.956 22.0039 21.9863C21.931 22.0166 21.8528 22.0321 21.7738 22.0321C21.6948 22.0321 21.6166 22.0166 21.5437 21.9863C21.4708 21.956 21.4045 21.9116 21.3488 21.8557L16.4738 16.9807V19.7607C16.4738 19.9198 16.4106 20.0724 16.2981 20.1849C16.1855 20.2974 16.0329 20.3607 15.8738 20.3607C15.7147 20.3607 15.562 20.2974 15.4495 20.1849C15.337 20.0724 15.2738 19.9198 15.2738 19.7607V15.5932C15.2658 15.5052 15.2768 15.4166 15.3061 15.3334C15.3355 15.2501 15.3824 15.1741 15.4438 15.1107C15.4829 15.0702 15.528 15.0361 15.5775 15.0094C15.6635 14.9597 15.7607 14.9326 15.86 14.9307H20.1238Z" fill="#6F7476"/>
<path fill-rule="evenodd" clip-rule="evenodd" d="M7.42624 16.1344H4.63623C4.55744 16.1344 4.47941 16.1189 4.40662 16.0887C4.33382 16.0586 4.26769 16.0144 4.21198 15.9587C4.15626 15.9029 4.11206 15.8368 4.08191 15.764C4.05176 15.6912 4.03624 15.6132 4.03624 15.5344C4.03624 15.4556 4.05176 15.3776 4.08191 15.3048C4.11206 15.232 4.15626 15.1658 4.21198 15.1101C4.26769 15.0544 4.33382 15.0102 4.40662 14.9801C4.47941 14.9499 4.55744 14.9344 4.63623 14.9344H8.87373C9.03276 14.9347 9.18519 14.998 9.29764 15.1105C9.41009 15.2229 9.47341 15.3754 9.47374 15.5344V19.7744C9.47374 19.9335 9.41053 20.0861 9.298 20.1986C9.18548 20.3112 9.03286 20.3744 8.87373 20.3744C8.7146 20.3744 8.56198 20.3112 8.44946 20.1986C8.33694 20.0861 8.27373 19.9335 8.27373 19.7744V16.9844L3.39873 21.8594C3.28488 21.97 3.13244 22.0318 2.97374 22.0318C2.81504 22.0318 2.66258 21.97 2.54874 21.8594C2.4928 21.8036 2.44842 21.7374 2.41814 21.6645C2.38785 21.5915 2.37225 21.5134 2.37225 21.4344C2.37225 21.3554 2.38785 21.2772 2.41814 21.2043C2.44842 21.1314 2.4928 21.0651 2.54874 21.0094L7.42624 16.1344Z" fill="#6F7476"/>
<path fill-rule="evenodd" clip-rule="evenodd" d="M21.7837 2.03565C21.8623 2.03543 21.9401 2.05128 22.0123 2.08224C22.0845 2.11319 22.1497 2.15859 22.2037 2.21565C22.3143 2.32949 22.3761 2.48194 22.3761 2.64065C22.3761 2.79935 22.3143 2.9518 22.2037 3.06565L17.3287 7.94064H20.1237C20.2828 7.94064 20.4354 8.00386 20.548 8.11638C20.6605 8.2289 20.7237 8.38151 20.7237 8.54064C20.7237 8.69977 20.6605 8.85239 20.548 8.96491C20.4354 9.07743 20.2828 9.14064 20.1237 9.14064H15.9375C15.8494 9.14812 15.7607 9.13684 15.6773 9.10753C15.594 9.07823 15.5177 9.03157 15.4537 8.97064C15.3874 8.90701 15.3373 8.82838 15.3078 8.74136C15.2782 8.65435 15.2699 8.56151 15.2837 8.47064V4.2944C15.2837 4.13527 15.3469 3.98265 15.4594 3.87013C15.572 3.75761 15.7246 3.6944 15.8837 3.6944C16.0428 3.6944 16.1954 3.75761 16.308 3.87013C16.4205 3.98265 16.4837 4.13527 16.4837 4.2944V7.08439L21.3587 2.2094C21.4726 2.09879 21.6249 2.03653 21.7837 2.03565Z" fill="#6F7476"/>
</svg>
