<svg width="24" height="24" viewBox="0 0 24 24" fill="none" xmlns="http://www.w3.org/2000/svg">
<path d="M6.98525 7.61203H12C12.3472 7.61203 12.6269 7.33232 12.6269 6.98518C12.6269 6.63805 12.3472 6.35834 12 6.35834H6.98525C6.63811 6.35834 6.3584 6.63805 6.3584 6.98518C6.3584 7.33232 6.63811 7.61203 6.98525 7.61203Z" fill="#6F7476"/>
<path d="M20.9832 13.0339V6.72045C20.9832 6.2934 20.8108 5.87633 20.5087 5.57414L17.0772 2.14272C16.775 1.84053 16.358 1.66821 15.9309 1.66821H3.30158C2.40501 1.66821 1.67078 2.39995 1.67078 3.29901V19.3498C1.67078 20.2464 2.40251 20.9806 3.30158 20.9806H13.0339C14.0704 22.2068 15.6162 22.986 17.3444 22.986C20.4562 22.986 22.9861 20.4561 22.9861 17.3444C22.9861 15.6162 22.2069 14.0728 20.9807 13.0339H20.9832ZM15.9659 2.9294H15.9759C16.0108 2.93439 16.0458 2.94438 16.0808 2.95937C16.0858 2.95937 16.0908 2.96436 16.0957 2.96686C16.1307 2.98434 16.1632 3.00432 16.1882 3.03179L19.6196 6.46322C19.6446 6.48819 19.667 6.52316 19.6845 6.55562C19.6845 6.56062 19.6895 6.56561 19.692 6.57061C19.707 6.60307 19.717 6.64053 19.722 6.6755V6.68549H15.9659V2.9294ZM3.30158 19.7269C3.09929 19.7269 2.92447 19.5546 2.92447 19.3498V3.29901C2.92447 3.09672 3.09679 2.92191 3.30158 2.92191H14.7122V7.30984C14.7122 7.65697 14.9919 7.93668 15.339 7.93668H19.727V12.2197C19.1626 11.9575 18.5582 11.7902 17.9263 11.7277C17.8989 11.7252 17.8714 11.7227 17.8439 11.7202C17.7765 11.7152 17.7091 11.7078 17.6416 11.7053C17.5442 11.7003 17.4443 11.6978 17.3444 11.6978C17.1671 11.6978 16.9923 11.7078 16.82 11.7227C16.9124 11.6154 16.9673 11.4755 16.9673 11.3207C16.9673 10.9735 16.6876 10.6938 16.3405 10.6938H6.31094C5.9638 10.6938 5.6841 10.9735 5.6841 11.3207C5.6841 11.6678 5.9638 11.9475 6.31094 11.9475H15.6812C13.8955 12.4994 12.487 13.918 11.9451 15.7086H6.31344C5.9663 15.7086 5.68659 15.9883 5.68659 16.3354C5.68659 16.6826 5.9663 16.9623 6.31344 16.9623H11.7203C11.7128 17.0872 11.7053 17.212 11.7053 17.3394C11.7053 17.4393 11.7078 17.5367 11.7128 17.6366C11.7153 17.704 11.7228 17.7714 11.7278 17.8389C11.7278 17.8663 11.7328 17.8938 11.7353 17.9213C11.7977 18.5506 11.9626 19.1575 12.2273 19.7219H3.30158V19.7269ZM17.3444 21.7323C15.836 21.7323 14.5074 20.9706 13.7157 19.8093C13.7107 19.8018 13.7057 19.7943 13.7007 19.7893C13.3911 19.3298 13.1688 18.8104 13.0514 18.2534C13.0464 18.236 13.0439 18.216 13.0389 18.1985C13.0165 18.0861 12.999 17.9712 12.9865 17.8514C12.984 17.8214 12.979 17.7914 12.9765 17.7639C12.964 17.6266 12.9565 17.4867 12.9565 17.3444C12.9565 14.9244 14.9245 12.9565 17.3444 12.9565C17.4843 12.9565 17.6242 12.9639 17.764 12.9764C17.794 12.9789 17.8239 12.9839 17.8514 12.9864C17.9663 12.9989 18.0837 13.0164 18.1986 13.0389C18.216 13.0414 18.236 13.0464 18.2535 13.0489C18.8104 13.1662 19.3299 13.391 19.7894 13.6982C19.7969 13.7032 19.8044 13.7082 19.8094 13.7132C20.9682 14.5023 21.7324 15.836 21.7324 17.3419C21.7324 19.7619 19.7644 21.7298 17.3444 21.7298H17.3469L17.3444 21.7323Z" fill="#6F7476"/>
<path d="M20.2989 16.8998C20.0541 16.6551 19.657 16.6551 19.4123 16.8998L17.9763 18.3358V14.8345C17.9763 14.4874 17.6966 14.2077 17.3494 14.2077C17.0023 14.2077 16.7226 14.4874 16.7226 14.8345V18.3358L15.2866 16.8998C15.0418 16.6551 14.6448 16.6551 14.4 16.8998C14.1553 17.1446 14.1553 17.5417 14.4 17.7864L16.9074 20.2938C17.0298 20.4162 17.1896 20.4761 17.3519 20.4761C17.5143 20.4761 17.6741 20.4162 17.7965 20.2938L20.3039 17.7864C20.5486 17.5417 20.5486 17.1446 20.3039 16.8998H20.2989Z" fill="#6F7476"/>
</svg>
