<svg width="24" height="24" viewBox="0 0 24 24" fill="none" xmlns="http://www.w3.org/2000/svg">
<path d="M17 16.775C16.655 16.775 16.375 17.055 16.375 17.4V20.1C16.375 20.1675 16.375 20.375 16 20.375H8C7.625 20.375 7.625 20.1675 7.625 20.1V3.9C7.625 3.8325 7.625 3.625 8 3.625H16C16.375 3.625 16.375 3.8325 16.375 3.9V6.6C16.375 6.945 16.655 7.225 17 7.225C17.345 7.225 17.625 6.945 17.625 6.6V3.9C17.625 3.0175 16.9425 2.375 16 2.375H8C7.0575 2.375 6.375 3.0175 6.375 3.9V20.1C6.375 20.9825 7.0575 21.625 8 21.625H16C16.9425 21.625 17.625 20.9825 17.625 20.1V17.4C17.625 17.055 17.345 16.775 17 16.775Z" fill="#6F7476"/>
<path d="M22.52 12.3475C22.53 12.3325 22.5375 12.3175 22.545 12.3025C22.5575 12.2825 22.5675 12.2625 22.5775 12.24C22.585 12.22 22.59 12.2 22.5975 12.1775C22.6025 12.16 22.61 12.1425 22.6125 12.1225C22.6275 12.0425 22.6275 11.9575 22.6125 11.8775C22.6075 11.8575 22.6025 11.84 22.5975 11.8225C22.5925 11.8025 22.5875 11.78 22.5775 11.76C22.5675 11.7375 22.555 11.7175 22.545 11.6975C22.5375 11.6825 22.53 11.6675 22.52 11.6525C22.4975 11.6175 22.47 11.585 22.4425 11.5575L19.4425 8.5575C19.1975 8.3125 18.8025 8.3125 18.5575 8.5575C18.3125 8.8025 18.3125 9.1975 18.5575 9.4425L20.49 11.375H10C9.655 11.375 9.375 11.655 9.375 12C9.375 12.345 9.655 12.625 10 12.625H20.49L18.5575 14.5575C18.3125 14.8025 18.3125 15.1975 18.5575 15.4425C18.68 15.565 18.84 15.625 19 15.625C19.16 15.625 19.32 15.565 19.4425 15.4425L22.4425 12.4425C22.4725 12.4125 22.4975 12.38 22.52 12.3475Z" fill="#6F7476"/>
</svg>
