<svg width="24" height="24" viewBox="0 0 24 24" fill="none" xmlns="http://www.w3.org/2000/svg">
<path d="M21.4697 1.46973C21.7626 1.17683 22.2374 1.17683 22.5303 1.46973C22.8232 1.76262 22.8232 2.23738 22.5303 2.53027L15.5303 9.53027C15.2374 9.82317 14.7626 9.82317 14.4697 9.53027C14.1768 9.23738 14.1768 8.76262 14.4697 8.46973L21.4697 1.46973Z" fill="#5C6366"/>
<path d="M21.25 9V2.75H15C14.5858 2.75 14.25 2.41421 14.25 2C14.25 1.58579 14.5858 1.25 15 1.25H22C22.4142 1.25 22.75 1.58579 22.75 2V9C22.75 9.41421 22.4142 9.75 22 9.75C21.5858 9.75 21.25 9.41421 21.25 9Z" fill="#5C6366"/>
<path d="M8.46973 14.4697C8.76262 14.1768 9.23738 14.1768 9.53027 14.4697C9.82317 14.7626 9.82317 15.2374 9.53027 15.5303L2.53027 22.5303C2.23738 22.8232 1.76262 22.8232 1.46973 22.5303C1.17683 22.2374 1.17683 21.7626 1.46973 21.4697L8.46973 14.4697Z" fill="#5C6366"/>
<path d="M1.25 15C1.25 14.5858 1.58579 14.25 2 14.25C2.41421 14.25 2.75 14.5858 2.75 15V21.25H9C9.41421 21.25 9.75 21.5858 9.75 22C9.75 22.4142 9.41421 22.75 9 22.75H2C1.58579 22.75 1.25 22.4142 1.25 22V15Z" fill="#5C6366"/>
</svg>
