<svg width="24" height="24" viewBox="0 0 24 24" fill="none" xmlns="http://www.w3.org/2000/svg">
<path d="M17 12.125C17.6213 12.125 18.125 11.6213 18.125 11C18.125 10.3787 17.6213 9.875 17 9.875C16.3787 9.875 15.875 10.3787 15.875 11C15.875 11.6213 16.3787 12.125 17 12.125Z" fill="#6F7476"/>
<path d="M12.125 12.25C12.7463 12.25 13.25 11.7463 13.25 11.125C13.25 10.5037 12.7463 10 12.125 10C11.5037 10 11 10.5037 11 11.125C11 11.7463 11.5037 12.25 12.125 12.25Z" fill="#6F7476"/>
<path d="M7 12.125C7.62132 12.125 8.125 11.6213 8.125 11C8.125 10.3787 7.62132 9.875 7 9.875C6.37868 9.875 5.875 10.3787 5.875 11C5.875 11.6213 6.37868 12.125 7 12.125Z" fill="#6F7476"/>
<path fill-rule="evenodd" clip-rule="evenodd" d="M22 11C22 15.4175 17.5225 19 12 19C10.9475 19 9.9325 18.87 8.9775 18.6275L5.79 20.905C5.46 21.1425 5 20.905 5 20.4975V16.7125C3.1475 15.26 2 13.2375 2 11C2 6.5825 6.4775 3 12 3C17.5225 3 22 6.5825 22 11ZM12 17.8C11.2625 17.8 10.545 17.73 9.8625 17.5975L9.075 17.415C8.9625 17.385 8.85 17.3525 8.7375 17.3175L6.2 19.13V16.115C4.36 14.8675 3.2 13.04 3.2 11C3.2 7.245 7.14 4.2 12 4.2C16.86 4.2 20.8 7.245 20.8 11C20.8 14.755 16.86 17.8 12 17.8Z" fill="#6F7476"/>
</svg>
