<svg width="24" height="24" viewBox="0 0 24 24" fill="none" xmlns="http://www.w3.org/2000/svg">
<path d="M21.1926 6.7875H2.81006C2.36131 6.7875 1.99756 6.42935 1.99756 5.9875C1.99756 5.54565 2.36131 5.1875 2.81006 5.1875H21.1926C21.6413 5.1875 22.0051 5.54565 22.0051 5.9875C22.0051 6.42935 21.6413 6.7875 21.1926 6.7875Z" fill="#6F7476"/>
<path d="M17.6913 12.7875H6.30131C5.85256 12.7875 5.48881 12.4293 5.48881 11.9875C5.48881 11.5457 5.85256 11.1875 6.30131 11.1875H17.6901C18.1388 11.1875 18.5026 11.5457 18.5026 11.9875C18.5026 12.4293 18.1388 12.7875 17.6901 12.7875H17.6913Z" fill="#6F7476"/>
<path d="M14.1901 18.7875H9.80756C9.35881 18.7875 8.99506 18.4293 8.99506 17.9875C8.99506 17.5457 9.35881 17.1875 9.80756 17.1875H14.1901C14.6388 17.1875 15.0026 17.5457 15.0026 17.9875C15.0026 18.4293 14.6388 18.7875 14.1901 18.7875Z" fill="#6F7476"/>
</svg>
