<svg width="24" height="25" viewBox="0 0 24 25" fill="none" xmlns="http://www.w3.org/2000/svg">
<path d="M19.9387 20.5986C19.7792 20.5986 19.6197 20.5375 19.4975 20.4166L11.5221 12.4412C11.2791 12.1982 11.2791 11.8031 11.5221 11.5601L19.4975 3.58338C19.7406 3.34037 20.1356 3.34037 20.3786 3.58338C20.6216 3.82638 20.6216 4.22141 20.3786 4.46442L12.8442 11.9988L20.3786 19.5331C20.6216 19.7761 20.6216 20.1712 20.3786 20.4142C20.2565 20.5363 20.097 20.5961 19.9374 20.5961L19.9387 20.5986Z" fill="#6F7476"/>
<path d="M11.9632 20.5986C11.8037 20.5986 11.6442 20.5375 11.5221 20.4166L3.54657 12.4412C3.30357 12.1982 3.30357 11.8031 3.54657 11.5601L11.5221 3.58338C11.7651 3.34037 12.1601 3.34037 12.4031 3.58338C12.6461 3.82638 12.6461 4.22141 12.4031 4.46442L4.86876 11.9988L12.4031 19.5331C12.6461 19.7761 12.6461 20.1712 12.4031 20.4142C12.281 20.5363 12.1215 20.5961 11.962 20.5961L11.9632 20.5986Z" fill="#6F7476"/>
</svg>
