<svg width="24" height="24" viewBox="0 0 24 24" fill="none" xmlns="http://www.w3.org/2000/svg">
<path fill-rule="evenodd" clip-rule="evenodd" d="M7.33314 6.3331C8.57088 5.09536 10.2496 4.4 12 4.4C13.7505 4.4 15.4292 5.09536 16.667 6.3331C17.9047 7.57084 18.6 9.24957 18.6 11C18.6 12.4431 18.0472 13.9079 16.9137 14.9349C16.1602 15.6902 15.7546 16.2867 15.5884 17.1177C15.5234 17.4426 15.2073 17.6533 14.8824 17.5883C14.5574 17.5234 14.3467 17.2073 14.4117 16.8823C14.6447 15.7172 15.2361 14.9154 16.0758 14.0757C16.0832 14.0683 16.0909 14.0611 16.0987 14.054C16.9569 13.2816 17.4 12.1517 17.4 11C17.4 9.56783 16.8311 8.19432 15.8184 7.18162C14.8057 6.16893 13.4322 5.6 12 5.6C10.5679 5.6 9.19437 6.16893 8.18167 7.18162C7.16897 8.19432 6.60005 9.56783 6.60005 11C6.60005 11.8826 6.76323 12.9147 7.92431 14.0757C8.65805 14.8095 9.35436 15.7122 9.5884 16.8823C9.65338 17.2073 9.44265 17.5234 9.11772 17.5883C8.79278 17.6533 8.47669 17.4426 8.4117 17.1177C8.24573 16.2878 7.74204 15.5905 7.07578 14.9243C5.63687 13.4853 5.40005 12.1174 5.40005 11C5.40005 9.24957 6.0954 7.57084 7.33314 6.3331Z" fill="#6F7476"/>
<path fill-rule="evenodd" clip-rule="evenodd" d="M8.40005 20C8.40005 19.6686 8.66868 19.4 9.00005 19.4H15C15.3314 19.4 15.6 19.6686 15.6 20C15.6 20.3314 15.3314 20.6 15 20.6H9.00005C8.66868 20.6 8.40005 20.3314 8.40005 20Z" fill="#6F7476"/>
<path fill-rule="evenodd" clip-rule="evenodd" d="M9.40005 23C9.40005 22.6686 9.66868 22.4 10 22.4H14C14.3314 22.4 14.6 22.6686 14.6 23C14.6 23.3314 14.3314 23.6 14 23.6H10C9.66868 23.6 9.40005 23.3314 9.40005 23Z" fill="#6F7476"/>
<path fill-rule="evenodd" clip-rule="evenodd" d="M12 0C12.2762 0 12.5 0.223858 12.5 0.5V3C12.5 3.27614 12.2762 3.5 12 3.5C11.7239 3.5 11.5 3.27614 11.5 3V0.5C11.5 0.223858 11.7239 0 12 0Z" fill="#6F7476"/>
<path fill-rule="evenodd" clip-rule="evenodd" d="M5.3536 1.35354C5.54886 1.15828 5.86544 1.15828 6.06071 1.35354L7.82847 3.12131C8.02374 3.31657 8.02374 3.63315 7.82847 3.82841C7.63321 4.02367 7.31663 4.02367 7.12137 3.82841L5.3536 2.06065C5.15834 1.86538 5.15834 1.5488 5.3536 1.35354Z" fill="#6F7476"/>
<path fill-rule="evenodd" clip-rule="evenodd" d="M18.8285 1.35355C19.0237 1.54882 19.0237 1.8654 18.8285 2.06066L17.0607 3.82843C16.8654 4.02369 16.5489 4.02369 16.3536 3.82843C16.1583 3.63316 16.1583 3.31658 16.3536 3.12132L18.1214 1.35355C18.3166 1.15829 18.6332 1.15829 18.8285 1.35355Z" fill="#6F7476"/>
</svg>
