<svg width="24" height="24" viewBox="0 0 24 24" fill="none" xmlns="http://www.w3.org/2000/svg">
<path d="M14.9297 21.3516C14.6172 21.3516 14.3672 21.1016 14.3672 20.7891V17.6875C14.3672 16.3828 13.3047 15.3203 12 15.3203C10.6953 15.3203 9.63281 16.3828 9.63281 17.6875V20.7891C9.63281 21.1016 9.38281 21.3516 9.07031 21.3516H5.22656C4.5 21.3516 3.90625 20.7578 3.89844 20.0234V10.2422C3.89844 10.2344 3.89844 10.2188 3.89844 10.2109C3.92187 9.82813 4.08594 9.46875 4.375 9.20313L4.38281 9.19531L11.6328 2.78906C11.8437 2.60156 12.1641 2.60156 12.375 2.78906L19.6172 9.19531L19.625 9.20313C19.9062 9.46875 20.0781 9.82031 20.1016 10.2109C20.1016 10.2188 20.1016 10.2344 20.1016 10.2422V20.0313C20.1016 20.7578 19.5078 21.3516 18.7734 21.3594H14.9297V21.3516ZM15.4922 20.2266H18.7734C18.8828 20.2266 18.9766 20.1328 18.9766 20.0234V10.2578C18.9687 10.1719 18.9297 10.0938 18.8672 10.0313L12.0078 3.96094L5.14062 10.0313C5.07812 10.0938 5.03906 10.1719 5.03125 10.2578V20.0234C5.03125 20.1328 5.125 20.2266 5.23437 20.2266H8.51562V17.6875C8.51562 15.7656 10.0859 14.1953 12.0078 14.1953C13.9297 14.1953 15.5 15.7656 15.5 17.6875V20.2266H15.4922Z" fill="#6F7476"/>
</svg>
