<svg width="24" height="24" viewBox="0 0 24 24" fill="none" xmlns="http://www.w3.org/2000/svg">
<path fill-rule="evenodd" clip-rule="evenodd" d="M4 4C2.89543 4 2 4.89543 2 6V16V17.5152V18C2 19.1046 2.89543 20 4 20H20C21.0528 20 21.9156 19.1866 21.9942 18.1539L22 18.1632V18V16V6C22 4.89543 21.1046 4 20 4H4ZM3.2 17.7V16.5642L6.78192 13.7254C6.8616 13.6622 6.97597 13.6689 7.04776 13.7409L10.3126 17.0146C10.7026 17.4056 11.3357 17.4065 11.7268 17.0165C11.7606 16.9827 11.792 16.9465 11.8207 16.9083L16.736 10.352C16.8023 10.2636 16.9277 10.2457 17.016 10.312C17.0355 10.3265 17.0521 10.3445 17.0651 10.365L20.8 16.2669V17.7C20.8 18.3075 20.3075 18.8 19.7 18.8H4.3C3.69249 18.8 3.2 18.3075 3.2 17.7ZM17.3865 8.61836L20.8 14.08V6.3C20.8 5.69249 20.3075 5.2 19.7 5.2H4.3C3.69249 5.2 3.2 5.69249 3.2 6.3V15.04L6.65054 12.2796C6.84949 12.1204 7.13629 12.1363 7.31645 12.3164L10.8369 15.8369C10.915 15.915 11.0417 15.915 11.1198 15.8369C11.1265 15.8302 16.5625 8.58336 16.5625 8.58336C16.7282 8.36245 17.0416 8.31768 17.2625 8.48336C17.3118 8.52034 17.3538 8.56611 17.3865 8.61836ZM8 8.5C8 9.32843 7.32843 10 6.5 10C5.67157 10 5 9.32843 5 8.5C5 7.67157 5.67157 7 6.5 7C7.32843 7 8 7.67157 8 8.5Z" fill="#6F7476"/>
</svg>
