<svg width="24" height="24" viewBox="0 0 24 24" fill="none" xmlns="http://www.w3.org/2000/svg">
<path fill-rule="evenodd" clip-rule="evenodd" d="M12.0001 22.0001C17.5229 22.0001 22.0001 17.5229 22.0001 12.0001C22.0001 6.47721 17.5229 2.00006 12.0001 2.00006C6.47721 2.00006 2.00006 6.47721 2.00006 12.0001C2.00006 17.5229 6.47721 22.0001 12.0001 22.0001ZM15.9425 7.18151C16.1844 6.93958 16.5767 6.93958 16.8186 7.18151C17.0605 7.42344 17.0605 7.81568 16.8186 8.05761L12.8762 12.0001L16.8186 15.9425C17.0605 16.1844 17.0605 16.5767 16.8186 16.8186C16.5767 17.0606 16.1844 17.0605 15.9425 16.8186L12 12.8762L8.05761 16.8186C7.81568 17.0605 7.42344 17.0606 7.18151 16.8186C6.93958 16.5767 6.93958 16.1844 7.18151 15.9425L11.124 12.0001L7.18151 8.05761C6.93958 7.81568 6.93958 7.42344 7.18151 7.18151C7.42344 6.93958 7.81568 6.93958 8.05761 7.18151L12 11.1239L15.9425 7.18151Z" fill="#6F7476"/>
</svg>
