<svg width="24" height="24" viewBox="0 0 24 24" fill="none" xmlns="http://www.w3.org/2000/svg">
<path d="M14.4853 13.5421C15.4878 12.7858 16.1366 11.5858 16.1366 10.2371C16.1366 7.95583 14.2803 6.09833 11.9978 6.09833C9.7153 6.09833 7.86031 7.95458 7.86031 10.2358C7.86031 11.5846 8.50906 12.7858 9.51156 13.5408C6.51031 14.5758 4.34656 17.4271 4.34656 20.7746C4.34656 21.1196 4.62656 21.3996 4.97156 21.3996H19.0241C19.3691 21.3996 19.649 21.1196 19.649 20.7746C19.6503 17.4271 17.4878 14.5758 14.4853 13.5421ZM9.11031 10.2358C9.11031 8.64333 10.4066 7.34708 11.9991 7.34708C13.5916 7.34708 14.8878 8.64333 14.8878 10.2358C14.8878 11.8283 13.5916 13.1246 11.9991 13.1246C10.4066 13.1246 9.11031 11.8283 9.11031 10.2358ZM5.62781 20.1508C5.94281 16.9133 8.68031 14.3746 11.9991 14.3746C15.3178 14.3746 18.0553 16.9133 18.3703 20.1508H5.62781Z" fill="#6F7476"/>
<path d="M15.9991 6.12458C16.1591 6.12458 16.3191 6.06333 16.4416 5.94208L18.4416 3.94333C18.6853 3.69958 18.6853 3.30333 18.4416 3.05958C18.1978 2.81583 17.8016 2.81583 17.5578 3.05958L15.5578 5.05833C15.3141 5.30208 15.3141 5.69833 15.5578 5.94208C15.6791 6.06333 15.8391 6.12458 15.9991 6.12458Z" fill="#6F7476"/>
<path d="M12.9853 5.13836C13.1453 5.13836 13.3053 5.07711 13.4278 4.95586L14.4415 3.94211C14.6853 3.69836 14.6853 3.30211 14.4415 3.05836C14.1978 2.81461 13.8015 2.81461 13.5578 3.05836L12.544 4.07211C12.3003 4.31586 12.3003 4.71211 12.544 4.95586C12.6653 5.07711 12.8253 5.13836 12.9853 5.13836Z" fill="#6F7476"/>
<path d="M17.1915 8.44959C17.3128 8.56709 17.469 8.62459 17.6253 8.62459C17.789 8.62459 17.9528 8.56084 18.0753 8.43334L21.449 4.93334C21.689 4.68459 21.6815 4.28959 21.4328 4.04959C21.184 3.80959 20.789 3.81709 20.549 4.06584L17.1753 7.56584C16.9353 7.81459 16.9428 8.20959 17.1915 8.44959Z" fill="#6F7476"/>
<path d="M21.0504 8.0146L17.5504 11.6358C17.3104 11.8846 17.3166 12.2796 17.5654 12.5196C17.6866 12.6371 17.8429 12.6958 17.9991 12.6958C18.1629 12.6958 18.3266 12.6321 18.4491 12.5046L21.9491 8.88335C22.1891 8.6346 22.1829 8.2396 21.9341 7.9996C21.6854 7.7596 21.2891 7.76585 21.0504 8.0146Z" fill="#6F7476"/>
<path d="M21.9415 12.5571C21.6978 12.3133 21.3015 12.3133 21.0578 12.5571L19.0791 14.5358C18.8353 14.7796 18.8353 15.1758 19.0791 15.4196C19.2016 15.5421 19.3615 15.6021 19.5215 15.6021C19.6815 15.6021 19.8416 15.5408 19.9641 15.4196L21.9428 13.4408C22.1853 13.1971 22.1853 12.8021 21.9415 12.5571Z" fill="#6F7476"/>
<path d="M6.44156 11.5571C6.19781 11.3133 5.80156 11.3133 5.55781 11.5571L2.05781 15.0571C1.81406 15.3008 1.81406 15.6971 2.05781 15.9408C2.18031 16.0633 2.34031 16.1233 2.50031 16.1233C2.66031 16.1233 2.82031 16.0621 2.94281 15.9408L6.44281 12.4408C6.68531 12.1971 6.68531 11.8021 6.44156 11.5571Z" fill="#6F7476"/>
<path d="M2.14402 12.1284C2.26527 12.2434 2.42027 12.2996 2.57402 12.2996C2.73902 12.2996 2.90402 12.2346 3.02777 12.1046L10.9528 3.75459C11.1903 3.50459 11.1803 3.10834 10.929 2.87084C10.679 2.63334 10.2828 2.64334 10.0453 2.89459L2.12027 11.2446C1.88402 11.4946 1.89402 11.8909 2.14402 12.1284Z" fill="#6F7476"/>
<path d="M2.57401 8.16081C2.73401 8.16081 2.89401 8.09956 3.01651 7.97831L6.97776 4.01706C7.22151 3.77331 7.22151 3.37706 6.97776 3.13331C6.73401 2.88956 6.33776 2.88956 6.09401 3.13331L2.13276 7.09456C1.88901 7.33831 1.88901 7.73456 2.13276 7.97831C2.25401 8.10081 2.41401 8.16081 2.57401 8.16081Z" fill="#6F7476"/>
</svg>
