<svg width="24" height="24" viewBox="0 0 24 24" fill="none" xmlns="http://www.w3.org/2000/svg">
<path fill-rule="evenodd" clip-rule="evenodd" d="M5.69995 3.67495C4.57874 3.67495 3.67495 4.57874 3.67495 5.69995V8.39995C3.67495 8.77274 3.37274 9.07495 2.99995 9.07495C2.62716 9.07495 2.32495 8.77274 2.32495 8.39995V5.69995C2.32495 3.83316 3.83316 2.32495 5.69995 2.32495H18.3C20.1667 2.32495 21.675 3.83316 21.675 5.69995V18.3C21.675 20.1667 20.1667 21.675 18.3 21.675H5.69995C3.83316 21.675 2.32495 20.1667 2.32495 18.3V15.6C2.32495 15.2272 2.62716 14.925 2.99995 14.925C3.37274 14.925 3.67495 15.2272 3.67495 15.6V18.3C3.67495 19.4212 4.57874 20.325 5.69995 20.325H18.3C19.4212 20.325 20.325 19.4212 20.325 18.3V5.69995C20.325 4.57874 19.4212 3.67495 18.3 3.67495H5.69995Z" fill="#6F7476"/>
<path fill-rule="evenodd" clip-rule="evenodd" d="M10.6773 7.02265C10.9409 7.28626 10.9409 7.71364 10.6773 7.97725L6.65462 12L10.6773 16.0227C10.9409 16.2863 10.9409 16.7136 10.6773 16.9772C10.4137 17.2409 9.98633 17.2409 9.72273 16.9772L5.22273 12.4772C4.95912 12.2136 4.95912 11.7863 5.22273 11.5227L9.72273 7.02265C9.98633 6.75905 10.4137 6.75905 10.6773 7.02265Z" fill="#6F7476"/>
<path fill-rule="evenodd" clip-rule="evenodd" d="M5.02502 12C5.02502 11.6272 5.32723 11.325 5.70002 11.325H17.4C17.7728 11.325 18.075 11.6272 18.075 12C18.075 12.3727 17.7728 12.675 17.4 12.675H5.70002C5.32723 12.675 5.02502 12.3727 5.02502 12Z" fill="#6F7476"/>
</svg>
