<svg width="24" height="24" viewBox="0 0 24 24" fill="none" xmlns="http://www.w3.org/2000/svg">
<path fill-rule="evenodd" clip-rule="evenodd" d="M2.625 7.99625H7.3925C7.7225 7.99625 7.9925 7.72625 7.9925 7.39625L7.9675 2.6C7.9675 2.27 7.6975 2 7.3675 2H2.6C2.27 2 2 2.27 2 2.6L2.025 7.39625C2.025 7.72625 2.295 7.99625 2.625 7.99625ZM6.49875 6.5025H3.51125L3.48625 3.5H6.47375L6.49875 6.5025ZM16.6287 7.99625H21.3962C21.7262 7.99625 21.9963 7.72625 21.9963 7.39625L21.9713 2.6C21.9713 2.27 21.7013 2 21.3713 2H16.6038C16.2738 2 16.0037 2.27 16.0037 2.6L16.0287 7.39625C16.0287 7.72625 16.2987 7.99625 16.6287 7.99625ZM20.5025 6.5025H17.515L17.49 3.5H20.4775L20.5025 6.5025ZM9.62875 7.99625H14.3962C14.7262 7.99625 14.9963 7.72625 14.9963 7.39625L14.9712 2.6C14.9712 2.27 14.7013 2 14.3713 2H9.60375C9.27375 2 9.00375 2.27 9.00375 2.6L9.02875 7.39625C9.02875 7.72625 9.29875 7.99625 9.62875 7.99625ZM13.5025 6.5025H10.515L10.49 3.5H13.4775L13.5025 6.5025ZM2.60625 22H21.4C21.73 22 22 21.73 22 21.4V10.1C22 9.77 21.73 9.5 21.4 9.5H2.60625C2.27625 9.5 2.00625 9.77 2.00625 10.1V21.4C2.00625 21.73 2.27625 22 2.60625 22ZM20.4988 20.4988H3.48625V11H20.4988V20.4988Z" fill="#6F7476"/>
</svg>
