<svg width="24" height="24" viewBox="0 0 24 24" fill="none" xmlns="http://www.w3.org/2000/svg">
<path d="M12 22.4349C17.7631 22.4349 22.435 17.763 22.435 11.9999C22.435 6.23685 17.7631 1.56494 12 1.56494C6.23691 1.56494 1.565 6.23685 1.565 11.9999C1.565 17.763 6.23691 22.4349 12 22.4349Z" fill="white"/>
<path fill-rule="evenodd" clip-rule="evenodd" d="M22.435 11.9999C22.435 17.763 17.7631 22.4349 12 22.4349C6.23691 22.4349 1.565 17.763 1.565 11.9999C1.565 6.23685 6.23691 1.56494 12 1.56494C17.7631 1.56494 22.435 6.23685 22.435 11.9999ZM7.25 11C6.69772 11 6.25 11.4477 6.25 12C6.25 12.5523 6.69772 13 7.25 13H16.75C17.3023 13 17.75 12.5523 17.75 12C17.75 11.4477 17.3023 11 16.75 11H7.25Z" fill="#D92B57"/>
</svg>
