<svg width="24" height="24" viewBox="0 0 24 24" fill="none" xmlns="http://www.w3.org/2000/svg">
<path d="M20.0001 10.5C19.5108 10.5001 19.0324 10.6449 18.6251 10.9162L14.8051 7.095C15.1943 6.57483 15.431 5.9566 15.4887 5.30954C15.5465 4.66248 15.423 4.01211 15.1322 3.43123C14.8413 2.85035 14.3945 2.36188 13.8418 2.02051C13.2891 1.67914 12.6522 1.49834 12.0026 1.49834C11.353 1.49834 10.7162 1.67914 10.1634 2.02051C9.61072 2.36188 9.16392 2.85035 8.87305 3.43123C8.58218 4.01211 8.4587 4.66248 8.51647 5.30954C8.57423 5.9566 8.81094 6.57483 9.20011 7.095L5.37511 10.9162C4.8583 10.5745 4.233 10.4368 3.62044 10.5299C3.00788 10.623 2.45173 10.9403 2.0598 11.4201C1.66788 11.9 1.46812 12.5083 1.49926 13.1272C1.53039 13.746 1.79022 14.3312 2.22834 14.7693C2.66645 15.2074 3.25165 15.4672 3.87046 15.4984C4.48926 15.5295 5.09759 15.3297 5.57747 14.9378C6.05736 14.5459 6.37461 13.9897 6.46772 13.3772C6.56082 12.7646 6.42313 12.1393 6.08136 11.6225L9.90261 7.80251C10.3704 8.15318 10.9189 8.38056 11.4976 8.46375V16.5425C10.7559 16.6679 10.0884 17.0673 9.62729 17.6616C9.1662 18.256 8.94522 19.0018 9.00812 19.7514C9.07103 20.501 9.41323 21.1996 9.96692 21.7088C10.5206 22.218 11.2454 22.5005 11.9976 22.5005C12.7498 22.5005 13.4746 22.218 14.0283 21.7088C14.582 21.1996 14.9242 20.501 14.9871 19.7514C15.05 19.0018 14.829 18.256 14.3679 17.6616C13.9069 17.0673 13.2393 16.6679 12.4976 16.5425V8.46375C13.0763 8.38056 13.6248 8.15318 14.0926 7.80251L17.9139 11.6225C17.6076 12.0875 17.4654 12.6415 17.5097 13.1965C17.554 13.7515 17.7824 14.2759 18.1585 14.6864C18.5347 15.097 19.0371 15.3702 19.5862 15.4627C20.1353 15.5553 20.6995 15.4619 21.1895 15.1974C21.6794 14.9328 22.067 14.5123 22.2909 14.0025C22.5147 13.4927 22.5619 12.9227 22.4251 12.383C22.2882 11.8432 21.9751 11.3647 21.5353 11.0231C21.0956 10.6815 20.5544 10.4966 19.9976 10.4975L20.0001 10.5ZM12.0001 2.5C12.4939 2.50035 12.9766 2.64694 13.3872 2.92128C13.7978 3.19562 14.118 3.58541 14.3073 4.04149C14.4966 4.49757 14.5466 4.99952 14.451 5.48399C14.3554 5.96847 14.1185 6.41377 13.7701 6.76375C13.3016 7.23014 12.6674 7.49197 12.0064 7.49197C11.3453 7.49197 10.7111 7.23014 10.2426 6.76375C9.89495 6.41453 9.65827 5.97037 9.56226 5.48705C9.46625 5.00373 9.51522 4.5028 9.70301 4.04723C9.89079 3.59165 10.209 3.20173 10.6177 2.92645C11.0264 2.65117 11.5074 2.50281 12.0001 2.5ZM4.00011 14.5C3.75469 14.5005 3.5129 14.4408 3.29592 14.3262C3.07894 14.2115 2.89341 14.0453 2.7556 13.8423C2.6178 13.6392 2.53192 13.4054 2.50551 13.1614C2.4791 12.9174 2.51298 12.6707 2.60414 12.4428C2.69531 12.2149 2.84098 12.0129 3.0284 11.8545C3.21582 11.696 3.43926 11.586 3.67911 11.534C3.91896 11.482 4.1679 11.4897 4.4041 11.5564C4.6403 11.623 4.85655 11.7466 5.03386 11.9162C5.04261 11.925 5.0476 11.935 5.05635 11.9438C5.0651 11.9525 5.07512 11.9575 5.08387 11.9662C5.28593 12.1787 5.4213 12.4457 5.47324 12.7343C5.52518 13.0229 5.49141 13.3203 5.3761 13.5899C5.2608 13.8595 5.069 14.0893 4.82445 14.2511C4.5799 14.4128 4.29331 14.4994 4.00011 14.5ZM14.0001 19.5C14.0001 19.8956 13.8828 20.2822 13.663 20.6111C13.4433 20.94 13.1309 21.1964 12.7655 21.3478C12.4 21.4991 11.9979 21.5387 11.6099 21.4616C11.222 21.3844 10.8656 21.1939 10.5859 20.9142C10.3062 20.6345 10.1157 20.2781 10.0385 19.8902C9.96138 19.5022 10.001 19.1001 10.1523 18.7346C10.3037 18.3692 10.5601 18.0568 10.889 17.8371C11.2179 17.6173 11.6045 17.5 12.0001 17.5C12.5305 17.5 13.0393 17.7107 13.4143 18.0858C13.7894 18.4609 14.0001 18.9696 14.0001 19.5ZM20.0001 14.5C19.7069 14.4994 19.4203 14.4128 19.1758 14.2511C18.9312 14.0893 18.7394 13.8595 18.6241 13.5899C18.5088 13.3203 18.475 13.0229 18.527 12.7343C18.5789 12.4457 18.7143 12.1787 18.9164 11.9662C18.9251 11.9575 18.9351 11.9525 18.9439 11.9438C18.9526 11.935 18.9576 11.925 18.9664 11.9162C19.1437 11.7466 19.3599 11.623 19.5961 11.5564C19.8323 11.4897 20.0813 11.482 20.3211 11.534C20.561 11.586 20.7844 11.696 20.9718 11.8545C21.1592 12.0129 21.3049 12.2149 21.3961 12.4428C21.4872 12.6707 21.5211 12.9174 21.4947 13.1614C21.4683 13.4054 21.3824 13.6392 21.2446 13.8423C21.1068 14.0453 20.9213 14.2115 20.7043 14.3262C20.4873 14.4408 20.2455 14.5005 20.0001 14.5Z" fill="#6F7476"/>
</svg>
