<svg width="24" height="24" viewBox="0 0 24 24" fill="none" xmlns="http://www.w3.org/2000/svg">
<path fill-rule="evenodd" clip-rule="evenodd" d="M14.3337 5.39845C14.4411 5.11962 14.5 4.81668 14.5 4.5C14.5 3.11929 13.3807 2 12 2C10.6193 2 9.5 3.11929 9.5 4.5C9.5 4.81669 9.55888 5.11962 9.6663 5.39845C6.94771 6.3595 5 8.95229 5 12V15L3 19H5H9.55001C9.51722 19.1616 9.5 19.3288 9.5 19.5C9.5 20.8807 10.6193 22 12 22C13.3807 22 14.5 20.8807 14.5 19.5C14.5 19.3288 14.4828 19.1616 14.45 19H19H21L19 15V12C19 8.95229 17.0523 6.3595 14.3337 5.39845ZM13.1561 5.09503C13.2481 4.91673 13.3 4.71443 13.3 4.5C13.3 3.78203 12.718 3.2 12 3.2C11.282 3.2 10.7 3.78203 10.7 4.5C10.7 4.71443 10.7519 4.91673 10.8439 5.09503C11.22 5.03252 11.6062 5 12 5C12.3938 5 12.78 5.03252 13.1561 5.09503ZM10.7996 19C10.7354 19.1539 10.7 19.3228 10.7 19.5C10.7 20.218 11.282 20.8 12 20.8C12.718 20.8 13.3 20.218 13.3 19.5C13.3 19.3228 13.2646 19.1539 13.2004 19H10.7996ZM17.8 15.28L19.06 17.8H17.8H6.2H4.94L6.2 15.28V12C6.2 8.79675 8.79675 6.2 12 6.2C15.2033 6.2 17.8 8.79675 17.8 12V15.28Z" fill="#6F7476"/>
</svg>
