<svg width="24" height="24" viewBox="0 0 24 24" fill="none" xmlns="http://www.w3.org/2000/svg">
<path d="M17.3333 22H6.66667C5.952 22 5.26933 21.7158 4.77867 21.2211C4.27733 20.7053 4 20.0526 4 19.3684V4.63158C4 3.92632 4.288 3.25263 4.78933 2.76842C5.312 2.27368 5.97333 2 6.66667 2H12.6293C13.0453 2 13.44 2.15789 13.7493 2.45263L19.5307 8.1579C19.8293 8.45263 20 8.85263 20 9.27368V19.3684C20 20.0737 19.712 20.7474 19.2107 21.2316C18.688 21.7263 18.0267 22 17.3333 22ZM6.66667 3.05263C6.25067 3.05263 5.856 3.22105 5.536 3.52632C5.23733 3.81053 5.06667 4.21053 5.06667 4.63158V19.3684C5.06667 19.7789 5.23733 20.1684 5.54667 20.4842C5.83467 20.7789 6.24 20.9474 6.66667 20.9474H17.3333C17.7493 20.9474 18.144 20.7789 18.464 20.4737C18.7627 20.1895 18.9333 19.7895 18.9333 19.3684V9.27368C18.9333 9.12632 18.88 9 18.784 8.89474L13.0133 3.2C12.9067 3.10526 12.768 3.05263 12.6293 3.05263H6.66667Z" fill="#6F7476"/>
<path d="M5.55469 19V10.4062H7.8252C8.30046 10.4062 8.67643 10.512 8.95312 10.7236C9.23307 10.9352 9.43327 11.2363 9.55371 11.627C9.67415 12.0176 9.73438 12.4831 9.73438 13.0234C9.73438 13.5443 9.68392 13.9984 9.58301 14.3857C9.4821 14.7699 9.30143 15.0677 9.04102 15.2793C8.78385 15.4909 8.41764 15.5967 7.94238 15.5967H7.24414V19H5.55469ZM7.24414 14.0537H7.3418C7.66081 14.0537 7.85612 13.9642 7.92773 13.7852C7.99935 13.6061 8.03516 13.3424 8.03516 12.9941C8.03516 12.6686 7.99935 12.418 7.92773 12.2422C7.85938 12.0632 7.69499 11.9736 7.43457 11.9736H7.24414V14.0537Z" fill="#6F7476"/>
<path d="M10.2812 19V10.4062H12.6445C13.263 10.4062 13.7285 10.5788 14.041 10.9238C14.3535 11.2656 14.5098 11.7669 14.5098 12.4277V16.4512C14.5098 17.265 14.3665 17.8932 14.0801 18.3359C13.7969 18.7786 13.2988 19 12.5859 19H10.2812ZM12.0098 17.4814H12.3076C12.6234 17.4814 12.7812 17.3285 12.7812 17.0225V12.5889C12.7812 12.3024 12.7422 12.1185 12.6641 12.0371C12.5892 11.9525 12.4346 11.9102 12.2002 11.9102H12.0098V17.4814Z" fill="#6F7476"/>
<path d="M15.2129 19V10.4062H18.6504V12.0811H16.9414V13.4482H18.5625V15.1035H16.9414V19H15.2129Z" fill="#6F7476"/>
</svg>
