<svg width="24" height="24" viewBox="0 0 24 24" fill="none" xmlns="http://www.w3.org/2000/svg">
<path fill-rule="evenodd" clip-rule="evenodd" d="M11.9996 1.56494C17.7625 1.56494 22.4349 6.23662 22.4351 11.9995C22.4351 17.7626 17.7626 22.4351 11.9996 22.4351C6.23668 22.4348 1.565 17.7624 1.565 11.9995C1.56523 6.23676 6.23682 1.56517 11.9996 1.56494ZM11.9996 6.00049C11.4475 6.00072 10.9996 6.44835 10.9996 7.00049V11.0005H6.99957C6.44748 11.0007 5.99957 11.4483 5.99957 12.0005C5.99984 12.5524 6.44765 13.0003 6.99957 13.0005H10.9996V17.0005C10.9998 17.5524 11.4476 18.0003 11.9996 18.0005C12.5517 18.0005 12.9993 17.5525 12.9996 17.0005V13.0005H16.9996C17.5517 13.0005 17.9993 12.5525 17.9996 12.0005C17.9996 11.4482 17.5519 11.0005 16.9996 11.0005H12.9996V7.00049C12.9996 6.4482 12.5519 6.00049 11.9996 6.00049Z" fill="#177EE5"/>
</svg>
