<svg width="24" height="24" viewBox="0 0 24 24" fill="none" xmlns="http://www.w3.org/2000/svg">
<path d="M7.4502 5V4.5498H5C4.75376 4.5498 4.5498 4.75376 4.5498 5V21C4.5498 21.2462 4.75376 21.4502 5 21.4502H19C19.2462 21.4502 19.4502 21.2462 19.4502 21V5C19.4502 4.75376 19.2462 4.5498 19 4.5498H16.5498V5C16.5498 5.85376 15.8538 6.5498 15 6.5498H9C8.14624 6.5498 7.4502 5.85376 7.4502 5ZM20.5498 21C20.5498 21.8538 19.8538 22.5498 19 22.5498H5C4.14624 22.5498 3.4502 21.8538 3.4502 21V5C3.4502 4.14624 4.14624 3.4502 5 3.4502H8C8.30376 3.4502 8.5498 3.69624 8.5498 4V5C8.5498 5.24624 8.75376 5.4502 9 5.4502H15C15.2462 5.4502 15.4502 5.24624 15.4502 5V4C15.4502 3.69624 15.6962 3.4502 16 3.4502H19C19.8538 3.4502 20.5498 4.14624 20.5498 5V21Z" fill="#5C6366"/>
<path d="M15.4502 3C15.4502 2.75376 15.2462 2.5498 15 2.5498H9C8.75376 2.5498 8.5498 2.75376 8.5498 3V5C8.5498 5.24624 8.75376 5.4502 9 5.4502H15C15.2462 5.4502 15.4502 5.24624 15.4502 5V3ZM16.5498 5C16.5498 5.85376 15.8538 6.5498 15 6.5498H9C8.14624 6.5498 7.4502 5.85376 7.4502 5V3C7.4502 2.14624 8.14624 1.4502 9 1.4502H15C15.8538 1.4502 16.5498 2.14624 16.5498 3V5Z" fill="#5C6366"/>
<path d="M16 13.4502C16.3038 13.4502 16.5498 13.6962 16.5498 14C16.5498 14.3038 16.3038 14.5498 16 14.5498H8C7.69624 14.5498 7.4502 14.3038 7.4502 14C7.4502 13.6962 7.69624 13.4502 8 13.4502H16Z" fill="#5C6366"/>
<path d="M16 9.4502C16.3038 9.4502 16.5498 9.69624 16.5498 10C16.5498 10.3038 16.3038 10.5498 16 10.5498H8C7.69624 10.5498 7.4502 10.3038 7.4502 10C7.4502 9.69624 7.69624 9.4502 8 9.4502H16Z" fill="#5C6366"/>
<path d="M16 17.4502C16.3038 17.4502 16.5498 17.6962 16.5498 18C16.5498 18.3038 16.3038 18.5498 16 18.5498H8C7.69624 18.5498 7.4502 18.3038 7.4502 18C7.4502 17.6962 7.69624 17.4502 8 17.4502H16Z" fill="#5C6366"/>
</svg>
