<svg width="24" height="24" viewBox="0 0 24 24" fill="none" xmlns="http://www.w3.org/2000/svg">
<path d="M20 3.375H4C2.5525 3.375 1.375 4.5525 1.375 6V18C1.375 19.4475 2.5525 20.625 4 20.625H20C21.4475 20.625 22.625 19.4475 22.625 18V6C22.625 4.5525 21.4475 3.375 20 3.375ZM21.375 18C21.375 18.7575 20.7575 19.375 20 19.375H4C3.2425 19.375 2.625 18.7575 2.625 18V6C2.625 5.2425 3.2425 4.625 4 4.625H20C20.7575 4.625 21.375 5.2425 21.375 6V18Z" fill="#6F7476"/>
<path d="M12.4425 7.5575C12.4125 7.5275 12.38 7.5025 12.3475 7.48C12.3325 7.47 12.3175 7.465 12.305 7.4575C12.285 7.445 12.2625 7.4325 12.24 7.425C12.22 7.4175 12.2 7.4125 12.18 7.4075C12.16 7.4025 12.1425 7.395 12.1225 7.39C12.0825 7.3825 12.0425 7.3775 12.0025 7.3775C11.9625 7.3775 11.92 7.3825 11.88 7.39C11.8625 7.3925 11.845 7.4 11.8275 7.405C11.805 7.41 11.785 7.415 11.765 7.425C11.745 7.435 11.725 7.445 11.705 7.4575C11.69 7.465 11.6725 7.4725 11.6575 7.4825C11.6225 7.505 11.59 7.5325 11.5625 7.56L9.5625 9.56C9.3175 9.805 9.3175 10.2 9.5625 10.445C9.8075 10.69 10.2025 10.69 10.4475 10.445L11.38 9.5125V16.0025C11.38 16.3475 11.66 16.6275 12.005 16.6275C12.35 16.6275 12.63 16.3475 12.63 16.0025V9.5125L13.5625 10.445C13.685 10.5675 13.845 10.6275 14.005 10.6275C14.165 10.6275 14.325 10.5675 14.4475 10.445C14.6925 10.2 14.6925 9.805 14.4475 9.56L12.4475 7.56L12.4425 7.5575Z" fill="#6F7476"/>
</svg>
