<svg width="24" height="24" viewBox="0 0 24 24" fill="none" xmlns="http://www.w3.org/2000/svg">
<path d="M20 10.25H17.75V7C17.75 3.83 15.17 1.25 12 1.25C8.83 1.25 6.25 3.83 6.25 7V10.25H4C3.59 10.25 3.25 10.59 3.25 11V22C3.25 22.41 3.59 22.75 4 22.75H20C20.41 22.75 20.75 22.41 20.75 22V11C20.75 10.59 20.41 10.25 20 10.25ZM7.75 7C7.75 4.66 9.66 2.75 12 2.75C14.34 2.75 16.25 4.66 16.25 7V10.25H7.75V7ZM19.25 21.25H4.75V11.75H19.25V21.25Z" fill="#6F7476"/>
<path d="M12 14.75C11.31 14.75 10.75 15.31 10.75 16C10.75 16.4 10.95 16.74 11.25 16.97V18C11.25 18.41 11.59 18.75 12 18.75C12.41 18.75 12.75 18.41 12.75 18V16.97C13.05 16.74 13.25 16.4 13.25 16C13.25 15.31 12.69 14.75 12 14.75Z" fill="#6F7476"/>
</svg>
