<svg width="24" height="24" viewBox="0 0 24 24" fill="none" xmlns="http://www.w3.org/2000/svg">
<path fill-rule="evenodd" clip-rule="evenodd" d="M18.6289 4C18.6289 3.45 19.0789 3 19.6289 3C20.1789 3 20.6289 3.45 20.6289 4V17.68L18.6289 15.68V4ZM13.6289 20C13.6289 20.55 14.0789 21 14.6289 21C15.1789 21 15.6289 20.55 15.6289 20V18.32L13.6289 16.32V20ZM13.6289 8C13.6289 7.45 14.0789 7 14.6289 7C15.1789 7 15.6289 7.45 15.6289 8V12.68L13.6289 10.68V8ZM8.62891 12V20C8.62891 20.55 9.07891 21 9.62891 21C10.1789 21 10.6289 20.55 10.6289 20V13.32L8.77891 11.47C8.68891 11.62 8.62891 11.81 8.62891 12ZM3.62891 16C3.62891 15.45 4.07891 15 4.62891 15C5.17891 15 5.62891 15.45 5.62891 16V20C5.62891 20.55 5.17891 21 4.62891 21C4.07891 21 3.62891 20.55 3.62891 20V16Z" fill="#6F7476"/>
<path fill-rule="evenodd" clip-rule="evenodd" d="M5.83885 4.29006L21.8388 20.2901C22.2288 20.6801 22.2288 21.3201 21.8388 21.7101C21.6388 21.9001 21.3888 22.0001 21.1288 22.0001C20.8688 22.0001 20.6188 21.9001 20.4288 21.7001L4.42885 5.70006C4.03885 5.31006 4.03885 4.68006 4.42885 4.29006C4.81885 3.90006 5.44885 3.90006 5.83885 4.29006Z" fill="#D92B57" class="accent"/>
</svg>
