<svg width="24" height="24" viewBox="0 0 24 24" fill="none" xmlns="http://www.w3.org/2000/svg">
<path fill-rule="evenodd" clip-rule="evenodd" d="M3.62817 16C3.62817 15.45 4.07817 15 4.62817 15C5.17817 15 5.62817 15.45 5.62817 16V20C5.62817 20.55 5.17817 21 4.62817 21C4.07817 21 3.62817 20.55 3.62817 20V16Z" fill="#D92B57" class="accent"/>
<path fill-rule="evenodd" clip-rule="evenodd" d="M18.6289 4C18.6289 3.45 19.0789 3 19.6289 3C20.1789 3 20.6289 3.45 20.6289 4V20C20.6289 20.55 20.1789 21 19.6289 21C19.0789 21 18.6289 20.55 18.6289 20V4ZM13.6289 8C13.6289 7.45 14.0789 7 14.6289 7C15.1789 7 15.6289 7.45 15.6289 8V20C15.6289 20.55 15.1789 21 14.6289 21C14.0789 21 13.6289 20.55 13.6289 20V8ZM9.62891 11C9.07891 11 8.62891 11.45 8.62891 12V20C8.62891 20.55 9.07891 21 9.62891 21C10.1789 21 10.6289 20.55 10.6289 20V12C10.6289 11.45 10.1789 11 9.62891 11Z" fill="#6F7476"/>
</svg>
