<svg width="24" height="24" viewBox="0 0 24 24" fill="none" xmlns="http://www.w3.org/2000/svg">
<path d="M22.3426 4.07H10.4275C10.145 2.8925 9.08755 2.015 7.82505 2.015C6.56255 2.015 5.50505 2.8925 5.22255 4.07H1.67505C1.33005 4.07 1.05005 4.35 1.05005 4.695C1.05005 5.04 1.33005 5.32 1.67505 5.32H5.22255C5.50505 6.4975 6.56255 7.375 7.82505 7.375C9.08755 7.375 10.145 6.4975 10.4275 5.32H22.3426C22.6875 5.32 22.9676 5.04 22.9676 4.695C22.9676 4.35 22.6875 4.07 22.3426 4.07ZM9.11005 5.32C8.87755 5.795 8.39005 6.125 7.82755 6.125C7.26505 6.125 6.77755 5.795 6.54505 5.32C6.45255 5.13 6.40005 4.92 6.40005 4.695C6.40005 4.47 6.45255 4.26 6.54505 4.07C6.77755 3.595 7.26505 3.265 7.82755 3.265C8.39005 3.265 8.87755 3.595 9.11005 4.07C9.20255 4.26 9.25505 4.47 9.25505 4.695C9.25505 4.92 9.20255 5.13 9.11005 5.32Z" fill="#6F7476"/>
<path d="M22.3426 11.375H18.7826C18.5001 10.1975 17.4426 9.32 16.1801 9.32C14.9176 9.32 13.8601 10.1975 13.5776 11.375H1.67506C1.33006 11.375 1.05006 11.655 1.05006 12C1.05006 12.345 1.33006 12.625 1.67506 12.625H13.5751C13.8576 13.8025 14.9151 14.68 16.1776 14.68C17.4401 14.68 18.4976 13.8025 18.7801 12.625H22.3401C22.6851 12.625 22.9651 12.345 22.9651 12C22.9651 11.655 22.6851 11.375 22.3401 11.375H22.3426ZM17.4626 12.625C17.2301 13.1 16.7426 13.43 16.1801 13.43C15.6176 13.43 15.1301 13.1 14.8976 12.625C14.8051 12.435 14.7526 12.225 14.7526 12C14.7526 11.775 14.8051 11.565 14.8976 11.375C15.1301 10.9 15.6176 10.57 16.1801 10.57C16.7426 10.57 17.2301 10.9 17.4626 11.375C17.5551 11.565 17.6076 11.775 17.6076 12C17.6076 12.225 17.5551 12.435 17.4626 12.625Z" fill="#6F7476"/>
<path d="M22.3426 18.68H10.4276C10.1451 17.5025 9.08756 16.625 7.82506 16.625C6.56256 16.625 5.50506 17.5025 5.22256 18.68H1.67506C1.33006 18.68 1.05006 18.96 1.05006 19.305C1.05006 19.65 1.33006 19.93 1.67506 19.93H5.22256C5.50506 21.1075 6.56256 21.985 7.82506 21.985C9.08756 21.985 10.1451 21.1075 10.4276 19.93H22.3426C22.6876 19.93 22.9676 19.65 22.9676 19.305C22.9676 18.96 22.6876 18.68 22.3426 18.68ZM7.82506 20.735C7.26006 20.735 6.77506 20.405 6.54256 19.93C6.45006 19.74 6.39756 19.53 6.39756 19.305C6.39756 19.08 6.45006 18.87 6.54256 18.68C6.77506 18.205 7.26256 17.875 7.82506 17.875C8.38756 17.875 8.87506 18.205 9.10756 18.68C9.20006 18.87 9.25256 19.08 9.25256 19.305C9.25256 19.53 9.20006 19.74 9.10756 19.93C8.87506 20.405 8.38756 20.735 7.82506 20.735Z" fill="#6F7476"/>
</svg>
