<svg width="24" height="24" viewBox="0 0 24 24" fill="none" xmlns="http://www.w3.org/2000/svg">
<path d="M18.4004 19.5996H5.59961V21C5.59961 21.2186 5.78137 21.4004 6 21.4004H18C18.2186 21.4004 18.4004 21.2186 18.4004 21V19.5996ZM20.4004 17C20.4004 16.2314 19.7686 15.5996 19 15.5996H5C4.23137 15.5996 3.59961 16.2314 3.59961 17V18.4004H20.4004V17ZM14.4004 4.90039C14.4004 4.22328 14.1026 3.61715 13.6104 3.19629L13.6064 3.19336C13.1831 2.82596 12.6222 2.59961 12 2.59961C11.3778 2.59961 10.8169 2.82596 10.3936 3.19336L10.3896 3.19629C9.89745 3.61715 9.59961 4.22328 9.59961 4.90039C9.59969 5.19623 9.69344 5.52575 9.84277 5.92969C9.94488 6.20586 10.0844 6.54167 10.1943 6.87891L10.292 7.21484L10.2939 7.21973H10.293C10.5431 8.26187 10.68 9.32751 10.6904 10.3945V10.4004C10.6904 11.2985 10.5605 12.2658 10.3535 13.1289C10.2462 13.5765 10.114 14.0104 9.96191 14.4004H14.0381C13.886 14.0104 13.7538 13.5765 13.6465 13.1289C13.4395 12.2658 13.3096 11.2985 13.3096 10.4004V10.3945C13.32 9.32751 13.4569 8.26187 13.707 7.21973L13.708 7.21484C13.8186 6.77257 14.0211 6.29793 14.1572 5.92969C14.3066 5.52575 14.4003 5.19623 14.4004 4.90039ZM15.5996 4.90039C15.5995 5.4243 15.4388 5.92492 15.2832 6.3457C15.1144 6.80243 14.9615 7.14822 14.8721 7.50586C14.6431 8.46185 14.5193 9.43524 14.5098 10.4062C14.5104 11.1963 14.626 12.0665 14.8135 12.8486C14.9642 13.4775 15.1553 14.016 15.3496 14.4004H19C20.4314 14.4004 21.5996 15.5686 21.5996 17V19C21.5996 19.3314 21.3314 19.5996 21 19.5996H19.5996V21C19.5996 21.8814 18.8814 22.5996 18 22.5996H6C5.11863 22.5996 4.40039 21.8814 4.40039 21V19.5996H3C2.66863 19.5996 2.40039 19.3314 2.40039 19V17C2.40039 15.5686 3.56863 14.4004 5 14.4004H8.65039C8.84472 14.016 9.03575 13.4775 9.18652 12.8486C9.37403 12.0665 9.48963 11.1963 9.49023 10.4062L9.48145 10.041C9.44825 9.19142 9.32825 8.34213 9.12793 7.50586L9.0498 7.2373C8.96131 6.9679 8.84339 6.68813 8.7168 6.3457C8.56124 5.92492 8.40047 5.4243 8.40039 4.90039C8.40039 3.85933 8.86096 2.92616 9.60645 2.28711L9.85449 2.08984C10.4541 1.65567 11.197 1.40039 12 1.40039C12.9177 1.40039 13.7569 1.73453 14.3936 2.28711H14.3926C15.1384 2.92617 15.5996 3.85907 15.5996 4.90039Z" fill="#6F7476"/>
</svg>
