<svg width="24" height="24" viewBox="0 0 24 24" fill="none" xmlns="http://www.w3.org/2000/svg">
<path d="M11.6904 1.45808C11.9144 1.32965 12.1998 1.35038 12.4033 1.52156L12.4043 1.52253L12.4394 1.55183C12.4657 1.57317 12.5058 1.60515 12.5586 1.64656C12.6651 1.73007 12.8244 1.85129 13.0273 1.99714C13.4337 2.28923 14.0154 2.67987 14.7148 3.06941C16.0402 3.8075 17.7306 4.5117 19.4228 4.59675L19.7607 4.60554L19.8701 4.61433C20.1193 4.65844 20.3215 4.85132 20.373 5.10652L20.374 5.10749V5.1114C20.3744 5.11344 20.3753 5.116 20.376 5.11921C20.3774 5.12638 20.3795 5.13675 20.3818 5.14949C20.3866 5.17497 20.3934 5.21195 20.4014 5.25886C20.4173 5.35272 20.4384 5.48848 20.4619 5.66121C20.5089 6.00714 20.5637 6.50321 20.5967 7.11238C20.6625 8.32906 20.6424 10.008 20.2939 11.8526C19.5951 15.5513 17.5674 19.9447 12.2783 22.5606C12.1037 22.647 11.8982 22.647 11.7236 22.5606C6.43442 19.9447 4.40684 15.5513 3.708 11.8526C3.35951 10.008 3.33846 8.32906 3.40429 7.11238C3.43726 6.50326 3.49206 6.00714 3.53906 5.66121C3.56253 5.48845 3.58459 5.35272 3.60058 5.25886C3.60858 5.21192 3.61536 5.17497 3.62011 5.14949C3.62248 5.13675 3.62458 5.12638 3.62597 5.11921C3.62658 5.11609 3.62655 5.11341 3.62695 5.1114L3.62792 5.10847V5.10652C3.68673 4.81482 3.94364 4.60554 4.2412 4.60554C6.04459 4.60543 7.87356 3.85661 9.2871 3.06941C9.98664 2.67983 10.5683 2.28923 10.9746 1.99714C11.1775 1.85129 11.3359 1.73007 11.4424 1.64656C11.4955 1.60489 11.5362 1.57322 11.5625 1.55183C11.5756 1.54115 11.5847 1.53244 11.5908 1.52742C11.5938 1.52491 11.5976 1.52253 11.5976 1.52253L11.5986 1.52156L11.6904 1.45808ZM11.7041 3.01179C11.268 3.32531 10.6449 3.74332 9.89452 4.16121C8.53425 4.9187 6.70078 5.70557 4.77734 5.83406C4.73443 6.15067 4.68409 6.61108 4.65331 7.17976C4.59136 8.3246 4.6113 9.89876 4.93652 11.6202C5.57266 14.9874 7.36695 18.8894 12.001 21.2969C16.6348 18.8894 18.4293 14.9873 19.0654 11.6202C19.3906 9.89879 19.4106 8.32458 19.3486 7.17976C19.3178 6.61103 19.2665 6.15067 19.2236 5.83406C17.3003 5.70543 15.4666 4.91867 14.1064 4.16121C13.3561 3.74335 12.733 3.32529 12.2969 3.01179C12.1849 2.93131 12.0867 2.85544 12 2.79011C11.9134 2.85532 11.8158 2.93152 11.7041 3.01179Z" fill="#6F7476"/>
<path d="M15.5518 8.56453C15.7921 8.31714 16.1879 8.31162 16.4355 8.55183C16.6829 8.7922 16.6884 9.18798 16.4482 9.43562L11.5986 14.4356C11.481 14.5567 11.3192 14.6249 11.1504 14.6251C10.9815 14.6252 10.8199 14.5567 10.7021 14.4356L8.55176 12.2257C8.31131 11.9782 8.31712 11.5825 8.56445 11.3419C8.81188 11.1014 9.20762 11.1072 9.44824 11.3546L11.1484 13.1026L15.5518 8.56453Z" fill="#6F7476"/>
</svg>
