<svg width="24" height="24" viewBox="0 0 24 24" fill="none" xmlns="http://www.w3.org/2000/svg">
<path d="M4.92958 19.0694C6.81911 20.96 9.33102 22 12.0006 22H11.9994C17.5139 22 22 17.5141 22 12C22 9.33059 20.9599 6.82 19.0704 4.93059C18.841 4.70118 18.468 4.70118 18.2386 4.93059L11.5841 11.5847C11.3547 11.8141 11.3547 12.1871 11.5841 12.4165C11.8135 12.6459 12.1865 12.6459 12.4159 12.4165L18.641 6.19176C20.054 7.8 20.8246 9.84118 20.8246 12C20.8246 16.8659 16.8656 20.8235 12.0006 20.8235C9.64515 20.8235 7.42973 19.9047 5.76257 18.2376C4.09424 16.5706 3.17654 14.3553 3.17654 12C3.17654 7.33294 6.82028 3.5 11.4123 3.19647V5.41176C11.4123 5.73647 11.6759 6 12.0006 6C12.3253 6 12.5889 5.73647 12.5889 5.41176V2.58824C12.5889 2.26353 12.3253 2 12.0006 2C6.48615 2 2 6.48588 2 12C2 14.6694 3.04006 17.18 4.92958 19.0694Z" fill="#6F7476"/>
<path d="M17.9962 12C17.9962 12.3247 18.2645 12.5882 18.5892 12.5882C18.9139 12.5882 19.1775 12.3247 19.1775 12C19.1775 11.6753 18.9139 11.4118 18.5892 11.4118H18.5798C18.2551 11.4118 17.9962 11.6753 17.9962 12Z" fill="#6F7476"/>
<path d="M5.42138 12.5882C5.09666 12.5882 4.82841 12.3247 4.82841 12C4.82841 11.6753 5.08724 11.4118 5.41197 11.4118H5.42138C5.74611 11.4118 6.00965 11.6753 6.00965 12C6.00965 12.3247 5.74611 12.5882 5.42138 12.5882Z" fill="#6F7476"/>
<path d="M11.9912 19.1765H12.01C12.3347 19.1765 12.5983 18.9129 12.5983 18.5882C12.5983 18.2635 12.3347 18 12.01 18H11.9912C11.6664 18 11.4029 18.2635 11.4029 18.5882C11.4029 18.9129 11.6664 19.1765 11.9912 19.1765Z" fill="#6F7476"/>
</svg>
