<svg width="24" height="24" viewBox="0 0 24 24" fill="none" xmlns="http://www.w3.org/2000/svg">
<path fill-rule="evenodd" clip-rule="evenodd" d="M3.76858 13.0212C4.11339 13.0212 4.39293 13.3008 4.39293 13.6456V19.4071C4.39293 19.5156 4.48428 19.6069 4.59272 19.6069H19.4073C19.5158 19.6069 19.6071 19.5155 19.6071 19.4071V13.6456C19.6071 13.3008 19.8866 13.0212 20.2314 13.0212C20.5762 13.0212 20.8558 13.3008 20.8558 13.6456V19.4071C20.8558 20.2027 20.2079 20.8556 19.4073 20.8556H4.59272C3.7971 20.8556 3.14423 20.2077 3.14423 19.4071V13.6456C3.14423 13.3008 3.42376 13.0212 3.76858 13.0212Z" fill="#6F7476"/>
<path d="M11.3757 16.1155C11.3757 16.4603 11.6552 16.7399 12 16.7399C12.3448 16.7399 12.6243 16.4603 12.6243 16.1155V5.2757L15.6742 8.32559C15.9181 8.56941 16.3134 8.56941 16.5572 8.32559C16.801 8.08176 16.801 7.68645 16.5572 7.44262L12.4415 3.32691C12.1977 3.08309 11.8024 3.08309 11.5585 3.32691L7.44282 7.44262C7.19899 7.68645 7.19899 8.08176 7.44282 8.32559C7.68664 8.56941 8.08196 8.56941 8.32578 8.32559L11.3757 5.27572V16.1155Z" fill="#6F7476"/>
</svg>
