<svg width="24" height="24" viewBox="0 0 24 24" fill="none" xmlns="http://www.w3.org/2000/svg">
<path d="M11.9952 3C14.6515 3.0001 16.8046 5.15334 16.8048 7.80957C16.8048 9.52769 15.9031 11.034 14.548 11.8848C18.0582 12.9737 20.6105 16.2487 20.6105 20.1152V21.125C20.6105 21.47 20.3304 21.7497 19.9855 21.75H4.005C3.65983 21.75 3.38 21.4702 3.38 21.125V20.1152C3.38 16.2492 5.93106 12.9741 9.44055 11.8848C8.08609 11.0338 7.18469 9.52721 7.18469 7.80957C7.18492 5.15328 9.33889 3 11.9952 3ZM11.9952 12.75C7.93042 12.75 4.63 16.0504 4.63 20.1152V20.5H19.3605V20.1152C19.3605 16.0505 16.06 12.7501 11.9952 12.75ZM11.9952 4.25C10.0292 4.25 8.43492 5.84363 8.43469 7.80957C8.43469 9.7757 10.0291 11.3701 11.9952 11.3701C13.9613 11.37 15.5548 9.77564 15.5548 7.80957C15.5546 5.84369 13.9611 4.2501 11.9952 4.25Z" fill="#6F7476"/>
</svg>
