<svg width="24" height="24" viewBox="0 0 24 24" fill="none" xmlns="http://www.w3.org/2000/svg">
<path d="M11.4004 17C11.4004 16.9152 11.4025 16.8309 11.4062 16.7471C11.4076 16.7174 11.4094 16.6878 11.4111 16.6582C11.415 16.5944 11.4189 16.5309 11.4248 16.4678C11.4269 16.4456 11.4293 16.4235 11.4316 16.4014C11.4496 16.2319 11.476 16.0649 11.5088 15.9004C11.5138 15.8753 11.5181 15.8501 11.5234 15.8252C11.5386 15.7543 11.5555 15.6841 11.5732 15.6143C11.5767 15.6006 11.5804 15.5869 11.584 15.5732C11.6076 15.4835 11.6333 15.3946 11.6611 15.3066C11.6941 15.2026 11.7308 15.1003 11.7695 14.999C11.7822 14.966 11.7954 14.9332 11.8086 14.9004C11.8419 14.8182 11.8761 14.7365 11.9131 14.6562C11.6174 14.6192 11.3137 14.5996 11 14.5996C7.88717 14.5996 5.22866 16.5179 4.13477 19.2373C4.18526 19.2568 4.23599 19.2759 4.28809 19.292C4.35642 19.3131 4.426 19.3317 4.49707 19.3467C4.51615 19.3507 4.53544 19.3538 4.55469 19.3574C4.60876 19.3675 4.66342 19.3754 4.71875 19.3818C4.73953 19.3842 4.76031 19.3868 4.78125 19.3887C4.85337 19.3951 4.92626 19.4004 5 19.4004H11.9375C11.6769 18.852 11.5038 18.2538 11.4346 17.624C11.4312 17.5935 11.4277 17.5629 11.4248 17.5322C11.4193 17.4733 11.4158 17.414 11.4121 17.3545C11.4099 17.3184 11.4078 17.2823 11.4062 17.2461C11.4028 17.1645 11.4004 17.0825 11.4004 17ZM18.9756 15.0762C19.2099 14.8419 19.5899 14.8419 19.8242 15.0762C20.0583 15.3104 20.0583 15.6896 19.8242 15.9238L16.8242 18.9238C16.5899 19.1581 16.2099 19.1581 15.9756 18.9238L14.1758 17.124C13.9416 16.8897 13.9415 16.5097 14.1758 16.2754C14.4101 16.0413 14.7901 16.0413 15.0244 16.2754L16.3994 17.6514L18.9756 15.0762ZM13.4004 8C13.4004 6.67451 12.3255 5.59961 11 5.59961C9.67452 5.59961 8.59961 6.67452 8.59961 8C8.59961 9.32548 9.67452 10.4004 11 10.4004C12.3255 10.4004 13.4004 9.32549 13.4004 8ZM12.6045 17.209C12.6049 17.2175 12.606 17.2259 12.6064 17.2344C12.6094 17.2914 12.6141 17.348 12.6191 17.4043C12.628 17.5016 12.6392 17.598 12.6543 17.6934C12.6601 17.7304 12.6671 17.767 12.6738 17.8037C12.7076 17.9867 12.7529 18.1656 12.8086 18.3398C12.8255 18.393 12.8425 18.4459 12.8613 18.498C13.4741 20.1906 15.0959 21.4004 17 21.4004C19.43 21.4004 21.4004 19.43 21.4004 17C21.4004 15.0959 20.1906 13.4741 18.498 12.8613C18.4459 12.8425 18.393 12.8255 18.3398 12.8086C18.1656 12.7529 17.9867 12.7076 17.8037 12.6738C17.767 12.6671 17.7304 12.6601 17.6934 12.6543C17.598 12.6392 17.5016 12.628 17.4043 12.6191C17.3596 12.6151 17.3147 12.6111 17.2695 12.6084C17.2494 12.6072 17.2292 12.6054 17.209 12.6045C17.1398 12.6013 17.0701 12.5996 17 12.5996C15.1629 12.5996 13.5881 13.7284 12.9297 15.3291C12.9136 15.3684 12.8968 15.4074 12.8818 15.4473C12.8474 15.5386 12.8165 15.6315 12.7881 15.7256C12.7565 15.8302 12.7289 15.9363 12.7051 16.0439C12.6819 16.1484 12.6621 16.2542 12.6465 16.3613C12.6305 16.4713 12.619 16.5827 12.6113 16.6953C12.6044 16.796 12.5996 16.8976 12.5996 17C12.5996 17.0701 12.6013 17.1398 12.6045 17.209ZM19.4004 5C19.4004 3.67137 18.3286 2.59961 17 2.59961H5C3.67137 2.59961 2.59961 3.67137 2.59961 5V17C2.59961 17.5757 2.80161 18.1028 3.1377 18.5156C4.47349 15.5025 7.4866 13.4004 11 13.4004C11.5441 13.4004 12.0726 13.4482 12.5898 13.5498C12.6193 13.5122 12.6483 13.4743 12.6787 13.4375C12.9069 13.1611 13.1611 12.9069 13.4375 12.6787C14.4055 11.8797 15.6468 11.4004 17 11.4004L17.2354 11.4053C17.2419 11.4055 17.2484 11.406 17.2549 11.4062C17.2882 11.4077 17.3214 11.41 17.3545 11.4121C17.414 11.4158 17.4733 11.4193 17.5322 11.4248C17.5629 11.4277 17.5935 11.4312 17.624 11.4346C17.6944 11.4423 17.7644 11.4516 17.834 11.4619C17.8421 11.4631 17.8503 11.4646 17.8584 11.4658C18.4023 11.5489 18.9206 11.7086 19.4004 11.9365V5ZM14.5996 8C14.5996 9.98821 12.9883 11.5996 11 11.5996C9.01178 11.5996 7.40039 9.98822 7.40039 8C7.40039 6.01178 9.01178 4.40039 11 4.40039C12.9883 4.40039 14.5996 6.01179 14.5996 8ZM20.5996 12.71C21.8226 13.7372 22.5996 15.2778 22.5996 17C22.5996 20.0928 20.0928 22.5996 17 22.5996C15.2781 22.5996 13.7382 21.8223 12.7109 20.5996H5C4.92088 20.5996 4.84248 20.5958 4.76465 20.5908C4.74049 20.5893 4.71645 20.587 4.69238 20.585C4.63169 20.5798 4.57151 20.5735 4.51172 20.5654C4.49742 20.5635 4.483 20.5626 4.46875 20.5605C4.3897 20.5489 4.31165 20.5343 4.23438 20.5176C4.22425 20.5154 4.21419 20.513 4.2041 20.5107C4.13826 20.4959 4.0732 20.4793 4.00879 20.4609C3.99153 20.456 3.97419 20.4515 3.95703 20.4463C3.8834 20.4241 3.8108 20.3997 3.73926 20.373C3.73308 20.3707 3.72686 20.3686 3.7207 20.3662C3.6572 20.3421 3.59492 20.3156 3.5332 20.2881C3.51564 20.2802 3.49788 20.2728 3.48047 20.2646C2.25083 19.6926 1.40039 18.4479 1.40039 17V5C1.40039 3.00863 3.00863 1.40039 5 1.40039H17C18.9914 1.40039 20.5996 3.00863 20.5996 5V12.71Z" fill="#6F7476"/>
</svg>
