<svg width="24" height="24" viewBox="0 0 24 24" fill="none" xmlns="http://www.w3.org/2000/svg">
<path d="M20.8213 11.9987C20.8213 14.1512 20.09 15.96 19.3425 17.245L20.2375 18.14C21.1162 16.69 22.0212 14.5725 22.0212 11.9987C22.0212 8.10624 19.95 5.25499 19.0338 4.18374C18.8075 3.91999 18.4125 3.92874 18.1763 4.18374C17.9488 4.43124 17.955 4.81624 18.1712 5.07374C19.0012 6.05749 20.8213 8.60249 20.8213 11.9987Z" fill="#6F7476"/>
<path d="M14.8212 11.9987C14.8212 12.2375 14.8038 12.4637 14.7738 12.6762L15.7625 13.665C15.915 13.1725 16.02 12.6125 16.02 11.9987C16.02 10.475 15.3787 9.27749 14.9462 8.64124C14.7537 8.35874 14.3612 8.35624 14.1313 8.60874C13.9213 8.83874 13.925 9.19874 14.0938 9.46124C14.405 9.94374 14.8212 10.8112 14.8212 11.9987Z" fill="#6F7476"/>
<path d="M17.8213 11.9987C17.8213 13.1612 17.5138 14.2012 17.1375 15.04L18.0375 15.94C18.5588 14.9137 19.0212 13.565 19.0212 11.9987C19.0212 9.33874 17.6888 7.29999 16.9925 6.41624C16.7788 6.14499 16.385 6.14999 16.1525 6.40499C15.9412 6.63749 15.94 6.99499 16.1287 7.24624C16.7125 8.02374 17.82 9.78874 17.82 11.9975L17.8213 11.9987Z" fill="#6F7476"/>
<path d="M9.04125 6.94374L10.6362 5.61499C10.7013 5.56124 10.8 5.60749 10.8 5.69124V8.70124L12 9.90124V4.25999C12 3.75124 11.4062 3.47374 11.0162 3.79874L8.22375 6.12624L9.0425 6.94499L9.04125 6.94374Z" fill="#6F7476"/>
<path d="M10.8 18.265C10.8 18.35 10.7012 18.3962 10.6362 18.3412L6.36 14.7775H3.5C3.33375 14.7775 3.2 14.6437 3.2 14.4775V9.47749C3.2 9.31124 3.33375 9.17749 3.5 9.17749H6.36L6.76375 8.84124L5.9 7.97749H3C2.4475 7.97749 2 8.42499 2 8.97749V14.9775C2 15.53 2.4475 15.9775 3 15.9775H6L11.0162 20.1575C11.4075 20.4837 12 20.205 12 19.6962V14.0762L10.8 12.8762V18.265Z" fill="#6F7476"/>
<path fill-rule="evenodd" clip-rule="evenodd" d="M20.48 21.32C20.59 21.44 20.75 21.5 20.9 21.5C21.05 21.5 21.21 21.44 21.33 21.32C21.56 21.08 21.56 20.7 21.33 20.47L3.53001 2.67C3.30001 2.44 2.92001 2.44 2.68001 2.67C2.45001 2.91 2.45001 3.29 2.68001 3.52L20.48 21.32Z" fill="#D92B57"/>
</svg>
