<svg width="24" height="24" viewBox="0 0 24 24" fill="none" xmlns="http://www.w3.org/2000/svg">
<path fill-rule="evenodd" clip-rule="evenodd" d="M10.413 20.1505H4.1297C3.90959 20.1505 3.72949 19.9704 3.72949 19.7503V12.3514H12.0788C12.5116 11.8937 13.0018 11.491 13.5346 11.1508H3.72699V6.751C3.72699 6.53089 3.90709 6.35079 4.1272 6.35079H6.52595V6.751C6.52595 7.91161 7.46644 8.8521 8.62705 8.8521C9.78765 8.8521 10.7281 7.91161 10.7281 6.751V6.35079H13.5271V6.751C13.5271 7.91161 14.4676 8.8521 15.6282 8.8521C16.7888 8.8521 17.7293 7.91161 17.7293 6.751V6.35079H20.128C20.3482 6.35079 20.5282 6.53089 20.5282 6.751V10.533C20.9485 10.7056 21.3487 10.9157 21.7289 11.1583V6.751C21.7289 5.87054 21.0085 5.15017 20.128 5.15017H17.7293V4.74996C17.7293 3.58935 16.7888 2.64886 15.6282 2.64886C14.4676 2.64886 13.5271 3.58935 13.5271 4.74996V5.15017H10.7281V4.74996C10.7281 3.58935 9.78765 2.64886 8.62705 2.64886C7.46644 2.64886 6.52595 3.58935 6.52595 4.74996V5.15017H4.1272C3.24674 5.15017 2.52637 5.87054 2.52637 6.751V19.7503C2.52637 20.6307 3.24674 21.3511 4.1272 21.3511H10.9558C10.7406 20.9709 10.5581 20.5682 10.4105 20.1505H10.413ZM14.7277 5.75048V4.74996C14.7277 4.2497 15.1279 3.84949 15.6282 3.84949C16.1285 3.84949 16.5287 4.2497 16.5287 4.74996V6.751C16.5287 7.25126 16.1285 7.65147 15.6282 7.65147C15.1279 7.65147 14.7277 7.25126 14.7277 6.751V5.75048ZM7.72908 5.75048V4.74996C7.72908 4.2497 8.12929 3.84949 8.62955 3.84949C9.12981 3.84949 9.53001 4.2497 9.53001 4.74996V6.751C9.53001 7.25126 9.12981 7.65147 8.62955 7.65147C8.12929 7.65147 7.72908 7.25126 7.72908 6.751V5.75048Z" fill="#7C868A"/>
<path d="M17.6241 12.2089C14.6426 12.2089 12.2263 14.6251 12.2263 17.6067C12.2263 20.5882 14.6426 23.0045 17.6241 23.0045C20.6057 23.0045 23.0219 20.5882 23.0219 17.6067C23.0219 14.6251 20.6057 12.2089 17.6241 12.2089ZM20.0379 18.2945H15.2104C14.8302 18.2945 14.5225 17.9869 14.5225 17.6067C14.5225 17.2265 14.8302 16.9188 15.2104 16.9188H20.0379C20.4181 16.9188 20.7257 17.2265 20.7257 17.6067C20.7257 17.9869 20.4181 18.2945 20.0379 18.2945Z" fill="#F88282"/>
</svg>
