<svg width="24" height="24" viewBox="0 0 24 24" fill="none" xmlns="http://www.w3.org/2000/svg">
<path fill-rule="evenodd" clip-rule="evenodd" d="M6.9999 8.09999H13.9999C14.3299 8.09999 14.5999 7.82999 14.5999 7.49999C14.5999 7.16999 14.3299 6.89999 13.9999 6.89999H6.9999C6.6699 6.89999 6.3999 7.16999 6.3999 7.49999C6.3999 7.82999 6.6699 8.09999 6.9999 8.09999ZM16.9999 15.9H6.9999C6.6699 15.9 6.3999 16.17 6.3999 16.5C6.3999 16.83 6.6699 17.1 6.9999 17.1H16.9999C17.3299 17.1 17.5999 16.83 17.5999 16.5C17.5999 16.17 17.3299 15.9 16.9999 15.9ZM6.9999 11.4H16.9999C17.3299 11.4 17.5999 11.67 17.5999 12C17.5999 12.33 17.3299 12.6 16.9999 12.6H6.9999C6.6699 12.6 6.3999 12.33 6.3999 12C6.3999 11.67 6.6699 11.4 6.9999 11.4Z" fill="#7C868A"/>
<path fill-rule="evenodd" clip-rule="evenodd" d="M20.6299 6.27999L17.2199 2.86999C16.9199 2.56999 16.5099 2.39999 16.0899 2.39999H4.4999C3.6199 2.39999 2.8999 3.11999 2.8999 3.99999V20C2.8999 20.88 3.6199 21.6 4.4999 21.6H19.4999C20.3799 21.6 21.0999 20.88 21.0999 20V7.40999C21.0999 6.98999 20.9299 6.57999 20.6299 6.27999ZM19.8999 20C19.8999 20.22 19.7199 20.4 19.4999 20.4H4.4999C4.2799 20.4 4.0999 20.22 4.0999 20V3.99999C4.0999 3.77999 4.2799 3.59999 4.4999 3.59999H16.0899C16.1899 3.59999 16.2999 3.63999 16.3699 3.71999L19.7799 7.12999C19.8599 7.20999 19.8999 7.30999 19.8999 7.40999V20Z" fill="#7C868A"/>
<path fill-rule="evenodd" clip-rule="evenodd" d="M20.6299 6.28002L17.2199 2.87002C16.9199 2.57002 16.5099 2.40002 16.0899 2.40002H4.4999C3.6199 2.40002 2.8999 3.12002 2.8999 4.00002V20C2.8999 20.88 3.6199 21.6 4.4999 21.6H19.4999C20.3799 21.6 21.0999 20.88 21.0999 20V7.41002C21.0999 6.99002 20.9299 6.58002 20.6299 6.28002ZM19.8999 20C19.8999 20.22 19.7199 20.4 19.4999 20.4H4.4999C4.2799 20.4 4.0999 20.22 4.0999 20V4.00002C4.0999 3.78002 4.2799 3.60002 4.4999 3.60002H16.0899C16.1899 3.60002 16.2999 3.64002 16.3699 3.72002L19.7799 7.13002C19.8599 7.21002 19.8999 7.31002 19.8999 7.41002V20Z" fill="#7C868A"/>
</svg>
