<svg width="24" height="24" viewBox="0 0 24 24" fill="none" xmlns="http://www.w3.org/2000/svg">
<path fill-rule="evenodd" clip-rule="evenodd" d="M4.9 5C3.85066 5 3 5.83947 3 6.875V7.8125V18.125C3 19.1606 3.85066 20 4.9 20H20.1C21.1494 20 22 19.1606 22 18.125V7.8125V6.875C22 5.83947 21.1494 5 20.1 5H4.9ZM4.14 17.9375V8.6L9.77606 12.4933C11.4116 13.6231 13.5884 13.6231 15.2239 12.4933L20.86 8.6V17.9375C20.86 18.4553 20.4347 18.875 19.91 18.875H5.09C4.56533 18.875 4.14 18.4553 4.14 17.9375ZM5.09 6.125C4.56533 6.125 4.14 6.54474 4.14 7.0625V7.26306L10.3147 11.5465C11.6258 12.456 13.3742 12.456 14.6854 11.5465L20.86 7.26306V7.0625C20.86 6.54474 20.4347 6.125 19.91 6.125H5.09Z" fill="#7C868A"/>
</svg>
