<svg width="24" height="24" viewBox="0 0 24 24" fill="none" xmlns="http://www.w3.org/2000/svg">
<path fill-rule="evenodd" clip-rule="evenodd" d="M22 12C22 6.54545 17.5556 2 12 2C6.44444 2 2 6.44444 2 12C2 17.4545 6.44444 22 12 22C17.4545 21.899 22 17.4545 22 12ZM3.31313 12.6061H6.34343V12.7071C6.44444 14.2222 6.84848 15.7374 7.65656 17.2525C6.94949 17.4545 6.24242 17.6566 5.43434 17.8586C4.22222 16.4444 3.41414 14.6263 3.31313 12.6061ZM5.53535 6.14141C6.34343 6.44444 7.15151 6.64646 7.95959 6.84848C7.0505 8.36363 6.54545 9.87878 6.44444 11.3939H3.31313C3.41414 9.37373 4.22222 7.55555 5.53535 6.14141ZM20.6869 11.3939H17.5556C17.3535 9.87878 16.8485 8.36363 16.0404 6.84848C16.8485 6.64646 17.6566 6.44444 18.4647 6.14141C19.7778 7.55555 20.5859 9.37373 20.6869 11.3939ZM16.4444 12.6061C16.3434 14.0202 15.9394 15.4343 15.0303 16.8485C13.0101 16.5454 10.9899 16.5454 8.86868 16.8485C8.0606 15.4343 7.55555 14.0202 7.45454 12.505C7.45454 12.505 7.45454 12.505 7.45454 12.404L16.4444 12.6061ZM14.3232 18.0606C13.7172 18.8687 12.9091 19.6768 12 20.4848C11.0909 19.6768 10.3839 18.8687 9.67676 18.0606C11.2929 17.8586 12.8081 17.8586 14.3232 18.0606ZM7.65656 11.3939C7.85858 9.97979 8.36364 8.56565 9.27273 7.0505C10.2828 7.15151 11.1919 7.25252 12.101 7.25252C13.0101 7.25252 13.9192 7.15151 14.8283 7.0505C15.7374 8.56565 16.2424 9.97979 16.4444 11.3939H7.65656ZM9.97979 5.93939C10.5859 5.13131 11.1919 4.32323 12 3.51515C12.8081 4.32323 13.5152 5.13131 14.0202 5.93939C12.7071 6.0404 11.2929 6.0404 9.97979 5.93939ZM15.3333 5.73737C14.8283 4.92929 14.2222 4.12121 13.5152 3.31313C15.0303 3.61616 16.3434 4.22222 17.4545 5.13131C16.8485 5.43434 16.1414 5.63636 15.3333 5.73737ZM8.66666 5.73737C7.95959 5.63636 7.25252 5.43434 6.54545 5.23232C7.65656 4.32323 9.0707 3.71717 10.4849 3.41414C9.77777 4.12121 9.17171 4.92929 8.66666 5.73737ZM8.36363 18.2626C8.86868 19.0707 9.57576 19.7778 10.2828 20.4848C8.86869 20.1818 7.55555 19.5757 6.54545 18.6667C7.15151 18.5656 7.75757 18.4646 8.36363 18.2626ZM15.6364 18.2626C16.2424 18.3636 16.8485 18.5656 17.4545 18.7677C16.3434 19.6768 15.1313 20.2828 13.7172 20.5858C14.4242 19.7778 15.1313 19.0707 15.6364 18.2626ZM16.3434 17.1515C17.1515 15.6363 17.6566 14.2222 17.6566 12.7071V12.6061H20.6869C20.5859 14.6263 19.7778 16.4444 18.4647 17.8586C17.7576 17.5555 17.0505 17.3535 16.3434 17.1515Z" fill="#7C868A"/>
</svg>
