<svg width="24" height="24" viewBox="0 0 24 24" fill="none" xmlns="http://www.w3.org/2000/svg">
<path fill-rule="evenodd" clip-rule="evenodd" d="M12 22C17.5228 22 22 17.5228 22 12C22 6.47715 17.5228 2 12 2C6.47715 2 2 6.47715 2 12C2 17.5228 6.47715 22 12 22ZM15.9425 7.18145C16.1844 6.93952 16.5767 6.93952 16.8186 7.18145C17.0605 7.42338 17.0605 7.81562 16.8186 8.05755L12.8761 12L16.8186 15.9425C17.0605 16.1844 17.0605 16.5766 16.8186 16.8186C16.5767 17.0605 16.1844 17.0605 15.9425 16.8186L12 12.8761L8.05755 16.8186C7.81562 17.0605 7.42338 17.0605 7.18144 16.8186C6.93952 16.5766 6.93952 16.1844 7.18144 15.9425L11.1239 12L7.18144 8.05755C6.93952 7.81562 6.93952 7.42338 7.18144 7.18145C7.42338 6.93952 7.81562 6.93952 8.05755 7.18145L12 11.1239L15.9425 7.18145Z" fill="#7C868A"/>
</svg>
