<svg width="24" height="24" viewBox="0 0 24 24" fill="none" xmlns="http://www.w3.org/2000/svg">
<path fill-rule="evenodd" clip-rule="evenodd" d="M11.1903 15.2401C10.1015 15.2401 9.08475 14.8171 8.31994 14.0431L4.18096 9.91203C2.60635 8.32803 2.60635 5.76301 4.18096 4.17901C4.94577 3.423 5.96252 3 7.05125 3C8.13998 3 9.15673 3.423 9.91254 4.18801L12.7739 7.05002C12.9808 7.25702 12.9808 7.59902 12.7739 7.81502C12.5669 8.03102 12.225 8.02202 12.0091 7.81502L9.15673 4.94401C8.04101 3.828 6.07049 3.828 4.95477 4.94401C3.80305 6.10502 3.80305 7.98602 4.95477 9.14703L9.09375 13.2781C9.86755 14.0611 11.0373 14.3491 12.09 14.0161C12.5489 13.8631 12.9538 13.6201 13.2957 13.2781C13.6377 12.936 13.8896 12.531 14.0336 12.072C14.1235 11.784 14.4295 11.631 14.7174 11.73C14.9963 11.82 15.1583 12.126 15.0593 12.414C14.8524 13.035 14.5194 13.5841 14.0516 14.0521C13.5837 14.5201 13.0348 14.8531 12.414 15.0601C12.0091 15.1771 11.6042 15.2401 11.1903 15.2401ZM16.9488 21C15.86 21 14.8433 20.577 14.0875 19.812L11.3161 17.031C11.1002 16.824 11.1002 16.482 11.3161 16.275C11.5321 16.068 11.874 16.068 12.081 16.275L14.8523 19.056C15.968 20.172 17.9385 20.172 19.0542 19.056C20.2059 17.895 20.2059 16.014 19.0542 14.853L14.9153 10.7219C14.1234 9.91194 12.8638 9.64194 11.856 10.0109C11.4151 10.1549 11.0462 10.3889 10.7223 10.7219C10.3894 11.0369 10.1554 11.415 10.0115 11.838C9.92149 12.117 9.61556 12.279 9.32763 12.18C9.0487 12.09 8.89574 11.784 8.98572 11.496C9.18367 10.9199 9.51659 10.3799 9.95748 9.94794C10.3804 9.51594 10.9202 9.18294 11.4961 8.98494C11.901 8.84094 12.3509 8.75994 12.8098 8.75994C13.8985 8.75994 14.9153 9.18294 15.6801 9.95694L19.819 14.088C21.3937 15.672 21.3937 18.237 19.819 19.821C19.0542 20.577 18.0285 21 16.9488 21Z" fill="#7C868A"/>
</svg>
