<svg width="24" height="24" viewBox="0 0 24 24" fill="none" xmlns="http://www.w3.org/2000/svg">
<path fill-rule="evenodd" clip-rule="evenodd" d="M13.6665 12.4407H18.2667C18.5672 12.4407 18.8664 12.1402 18.8664 11.841C18.8664 11.5417 18.5659 11.2412 18.2667 11.2412H13.6665C13.366 11.2412 13.0668 11.5417 13.0668 11.841C13.0668 12.1402 13.3673 12.4407 13.6665 12.4407ZM18.2667 14.6406H12.0664C11.7659 14.6406 11.5668 14.4403 11.4666 14.141V14.0409C11.4666 13.7404 11.7671 13.4411 12.0664 13.4411H18.2667C18.5672 13.4411 18.8664 13.7416 18.8664 14.0409C18.8664 14.3401 18.5659 14.6406 18.2667 14.6406Z" fill="#7C868A"/>
<path d="M20.657 7.97827H16.7492V5.14479C16.7492 4.35097 16.0893 3.7049 15.2792 3.7049H3.68116C2.86981 3.7049 2.20996 4.35097 2.20996 5.14479V12.7575C2.20996 13.5513 2.86981 14.1974 3.68116 14.1974H8.40028V16.5062C8.40028 17.3051 9.05262 17.9574 9.85646 17.9574H17.3289L21.0539 21.5459C21.1728 21.6611 21.3293 21.7212 21.4883 21.7212C21.571 21.7212 21.6549 21.7049 21.7338 21.6711C21.9654 21.5722 22.1144 21.3455 22.1144 21.0951V9.41817C22.1144 8.62434 21.4608 7.97827 20.6582 7.97827H20.657ZM3.68116 12.9465C3.56221 12.9465 3.46205 12.8602 3.46205 12.7587V5.14605C3.46205 5.04463 3.56221 4.95823 3.68116 4.95823H15.2792C15.3982 4.95823 15.4971 5.04463 15.4971 5.14605V7.97952H9.85771C9.05512 7.97952 8.40153 8.6256 8.40153 9.41942V12.9478H3.68116V12.9465ZM20.861 19.6239L18.0138 16.8831C17.8974 16.7704 17.7421 16.7078 17.5806 16.7078L9.85646 16.7041C9.74752 16.7041 9.65236 16.6114 9.65236 16.5075V9.41817C9.65236 9.31675 9.74627 9.23035 9.85771 9.23035H20.657C20.7684 9.23035 20.861 9.31675 20.861 9.41817V19.6239Z" fill="#7C868A"/>
</svg>
