<svg width="24" height="24" viewBox="0 0 24 24" fill="none" xmlns="http://www.w3.org/2000/svg">
<path fill-rule="evenodd" clip-rule="evenodd" d="M14.9988 9.85107C14.9988 10.681 14.6599 11.4324 14.1138 11.9758C15.8055 12.6845 17.2488 14.4863 17.2488 16.2271C17.2488 16.7349 16.8357 17.1479 16.3279 17.1479H7.67163C7.16284 17.1479 6.74976 16.7349 6.74976 16.2271C6.74976 14.4861 8.19312 12.6843 9.88562 11.9757C9.3396 11.4323 9.00073 10.6809 9.00073 9.85107C9.00073 8.19678 10.3455 6.85205 11.9998 6.85205C13.6541 6.85205 14.9988 8.19678 14.9988 9.85107ZM13.7996 9.85107C13.7996 8.85889 12.9919 8.05127 11.9998 8.05127C11.0076 8.05127 10.2 8.85889 10.2 9.85107C10.2 10.8433 11.0076 11.6509 11.9998 11.6509C12.9919 11.6509 13.7996 10.8433 13.7996 9.85107ZM11.3259 12.8501C9.84058 12.8501 8.15894 14.4448 7.96753 15.9487H16.031C15.8396 14.4448 14.1589 12.8501 12.6736 12.8501H11.3259ZM5.95496 13.8553H6.41504C6.88501 12.9954 7.58496 12.2153 8.42493 11.6453C8.14502 11.0953 8.00488 10.4854 8.00488 9.85535C8.00488 9.74536 8.00488 9.63531 8.0249 9.53534C7.60498 9.19531 7.06494 8.98535 6.47498 8.98535C5.13501 8.98535 4.03491 10.0753 4.03491 11.4254C4.03491 12.0153 4.26489 12.5554 4.61499 12.9854C3.34497 13.5853 2.31494 14.9553 2.31494 16.3054C2.31494 16.7653 2.69495 17.1453 3.16504 17.1453H5.98486C5.83496 16.8654 5.74487 16.5554 5.74487 16.2253C5.74487 16.1353 5.74487 16.0453 5.75488 15.9453H3.55493C3.7749 14.9053 4.93494 13.8553 5.95496 13.8553ZM6.47498 10.1854C7.15503 10.1854 7.71497 10.7354 7.71497 11.4254C7.71497 12.1053 7.15503 12.6553 6.47498 12.6553C5.79492 12.6553 5.23486 12.1053 5.23486 11.4254C5.23486 10.7354 5.79492 10.1854 6.47498 10.1854ZM19.965 11.4254C19.965 12.0153 19.7349 12.5554 19.385 12.9854C20.655 13.5853 21.6849 14.9553 21.6849 16.3054C21.6849 16.7653 21.3049 17.1453 20.835 17.1453H18.0049C18.165 16.8754 18.2449 16.5554 18.2449 16.2253C18.2449 16.1353 18.2449 16.0453 18.2349 15.9453H20.4449C20.225 14.9053 19.0649 13.8553 18.0449 13.8553H17.595C17.115 12.9954 16.415 12.2153 15.575 11.6453C15.855 11.0953 15.9949 10.4854 15.9949 9.85535C15.9949 9.74536 15.9949 9.63531 15.975 9.53534C16.395 9.19531 16.9349 8.98535 17.5249 8.98535C18.865 8.98535 19.965 10.0753 19.965 11.4254ZM16.2849 11.4254C16.2849 12.1053 16.845 12.6553 17.5249 12.6553C18.205 12.6553 18.7649 12.1053 18.7649 11.4254C18.7649 10.7354 18.205 10.1854 17.5249 10.1854C16.845 10.1854 16.2849 10.7354 16.2849 11.4254Z" fill="#7C868A"/>
</svg>
