<svg width="24" height="24" viewBox="0 0 24 24" fill="none" xmlns="http://www.w3.org/2000/svg">
<g clip-path="url(#clip0_851_46)">
<path d="M6.575 9.6C6.575 11.5312 7.59125 13.23 9.11625 14.1912C8.86026 14.2667 8.60737 14.3526 8.35912 14.4474C5.9295 15.374 3.89647 17.2119 2.7475 19.6425C1.03125 17.5662 0 14.9037 0 12C0 5.3725 5.3725 0 12 0C18.6275 0 24 5.3725 23.9988 12C23.9988 14.9033 22.9678 17.5654 21.252 19.6415C19.9857 16.9633 17.6459 15.0049 14.885 14.1912C16.41 13.23 17.4263 11.5312 17.4263 9.59999C17.4263 6.60874 14.9925 4.17499 12.0013 4.17499C11.9821 4.17499 11.9629 4.17509 11.9437 4.17529C8.97829 4.20558 6.575 6.62753 6.575 9.6Z" fill="#7C868A"/>
<path d="M3.67718 20.6297L3.77875 20.3987C5.215 17.1337 8.4425 15.0237 12.0025 15.0237C15.5625 15.0237 18.7913 17.1337 20.2262 20.3987L20.3264 20.6264C18.1657 22.7116 15.2388 24 12 24C8.76301 24 5.83751 22.7119 3.67718 20.6297Z" fill="#7C868A"/>
<path d="M12 5.42499C9.6975 5.42499 7.825 7.29749 7.825 9.59999C7.825 11.9025 9.6975 13.775 12 13.775C14.3025 13.775 16.175 11.9025 16.175 9.59999C16.175 7.29749 14.3025 5.42499 12 5.42499Z" fill="#7C868A"/>
</g>
<defs>
<clipPath id="clip0_851_46">
<rect width="24" height="24" fill="white"/>
</clipPath>
</defs>
</svg>
